<?xml version="1.0" encoding="UTF-8" standalone="no"?><!DOCTYPE svg PUBLIC "-//W3C//DTD SVG 1.1//EN" "http://www.w3.org/Graphics/SVG/1.1/DTD/svg11.dtd"><svg width="100%" height="100%" viewBox="0 0 325 56" version="1.1" xmlns="http://www.w3.org/2000/svg" xmlns:xlink="http://www.w3.org/1999/xlink" xml:space="preserve" style="fill-rule:evenodd;clip-rule:evenodd;stroke-linejoin:round;stroke-miterlimit:1.41421;"><path d="M42.861,55.107l-6.23,0l-1.773,-1.772l0,-51.133l1.773,-1.772l6.23,0l0.054,0.107c2.757,0.108 5.228,0.304 7.412,0.591c3.867,0.501 6.589,1.343 8.164,2.524c4.548,3.366 6.821,7.43 6.821,12.193c0,3.724 -1.486,7.09 -4.458,10.097c0.066,0.059 0.13,0.118 0.194,0.177c-0.606,0.881 -0.567,1.636 -0.511,1.954c0.008,0.045 0.017,0.089 0.028,0.132c0.088,-0.409 0.298,-0.909 0.755,-1.437c0.102,0.075 0.202,0.15 0.3,0.225c0.022,-0.073 0.048,-0.148 0.078,-0.225c0.115,0.123 0.227,0.247 0.335,0.374c-0.027,0.038 -0.052,0.077 -0.075,0.115c0.179,0.144 0.35,0.286 0.514,0.429c1.331,1.758 2.063,3.79 2.196,6.098l0,19.444l-1.88,1.879l-3.704,0c-0.038,-0.201 -0.098,-0.392 -0.179,-0.521c-0.07,0.187 -0.17,0.344 -0.299,0.427c-0.01,0.011 -0.063,0.043 -0.069,0.048c-0.014,0.013 -0.026,0.028 -0.038,0.046l-2.371,0l-1.88,-1.879l0,-17.403c-0.393,-2.297 -1.602,-3.803 -3.627,-4.518l0,-0.156c-0.129,-0.05 -0.267,-0.038 -0.401,0.028c-0.257,-0.074 -0.525,-0.137 -0.806,-0.188l-0.215,0c-1.396,0.143 -2.918,0.251 -4.565,0.322l0,22.022l-1.773,1.772Zm-6.211,-8.073c0.119,0.347 0.348,0.575 0.598,0.575c0.125,0 0.234,0.03 0.327,0.082c0.047,0.432 0.246,0.767 0.494,0.878c0.026,0.151 0.037,0.299 0.037,0.426c0,0.147 -0.014,0.324 -0.051,0.501c-0.092,-0.442 -0.323,-0.887 -0.807,-0.887c-0.33,0 -0.624,-0.398 -0.676,-0.944c-0.013,-0.145 -0.039,-0.272 -0.08,-0.381c0.01,-0.026 0.02,-0.052 0.031,-0.076c0.032,-0.07 0.076,-0.128 0.127,-0.174Zm25.607,0.969c-0.005,0.168 -0.037,0.329 -0.083,0.475c-0.126,-0.338 -0.378,-0.566 -0.64,-0.566c-0.112,0 -0.21,0.041 -0.297,0.104c-0.081,-0.247 -0.154,-0.5 -0.214,-0.774c0.123,-0.173 0.292,-0.33 0.511,-0.33c0.188,0 0.37,0.117 0.505,0.309l-0.016,0.021c0.06,0.274 0.133,0.527 0.214,0.774l0.02,-0.013Zm-25.841,-0.877c-0.21,-0.339 -0.724,-0.289 -0.893,0.082c-0.011,0.025 -0.022,0.051 -0.032,0.078l-0.064,-0.051c-0.051,-0.433 -0.018,-0.778 0.096,-1.027c0.174,-0.38 0.709,-0.423 0.909,-0.055c0.023,0.04 0.043,0.084 0.06,0.131c-0.08,0.219 -0.106,0.5 -0.076,0.842Zm25.124,-3.293c-0.168,-0.089 -0.339,-0.128 -0.492,-0.099c-0.099,0.013 -0.196,-0.003 -0.286,-0.054c-0.025,0.129 -0.064,0.242 -0.115,0.347c-0.026,0.061 -0.048,0.127 -0.064,0.197c-0.078,-0.498 -0.062,-0.904 0.064,-1.197c0.051,-0.105 0.09,-0.218 0.115,-0.347c0.09,0.051 0.187,0.067 0.286,0.054c0.2,-0.037 0.43,0.039 0.643,0.192c-0.013,0.035 -0.028,0.068 -0.044,0.101c-0.091,0.212 -0.125,0.483 -0.107,0.806Zm-1.652,-2.934c-0.11,-0.478 -0.102,-0.784 -0.053,-0.918c0.048,-0.124 0.154,-0.143 0.211,-0.143c0.22,0 0.408,0.225 0.463,0.442c0.05,0.196 0.017,0.441 -0.097,0.726l-0.014,0.041c-0.088,-0.12 -0.214,-0.209 -0.352,-0.209c-0.041,0 -0.107,0.01 -0.158,0.061Zm-7.573,-9.902c0.011,-0.147 0,-0.257 -0.023,-0.325c-0.018,-0.045 -0.053,-0.08 -0.09,-0.105c-0.039,0.049 -0.081,0.089 -0.126,0.122c0.002,0.085 0.015,0.144 0.032,0.183c0.03,0.062 0.105,0.104 0.207,0.125Zm-8.468,-5.265c-0.057,-0.037 -0.116,-0.056 -0.189,-0.065c-0.024,0.119 -0.048,0.232 -0.075,0.319c-0.025,0.099 -0.046,0.175 -0.057,0.249c0.09,-0.001 0.201,-0.023 0.255,-0.12c0.039,-0.07 0.061,-0.205 0.066,-0.383Zm4.749,-0.804c-0.045,-0.073 -0.097,-0.136 -0.155,-0.183c-0.017,-0.016 -0.035,-0.04 -0.056,-0.064c0.01,-0.129 0.048,-0.234 0.115,-0.428l0.048,-0.145c0.024,-0.067 0.041,-0.14 0.055,-0.213c0.061,0.038 0.115,0.086 0.163,0.148c0.069,0.105 0.103,0.241 0.103,0.414c0,0.175 -0.044,0.393 -0.12,0.567c-0.042,-0.053 -0.092,-0.095 -0.146,-0.129l-0.007,0.033Zm-2.846,-0.92c0.098,-0.049 0.158,-0.159 0.178,-0.422c-0.036,-0.051 -0.117,-0.101 -0.166,-0.132c-0.013,-0.011 -0.031,-0.019 -0.048,-0.033c-0.023,0.078 -0.034,0.165 -0.034,0.242c0,0.119 0.023,0.24 0.07,0.345Zm-3.608,-3.6l-0.041,-0.036c-0.113,-0.096 -0.242,-0.206 -0.372,-0.344c-0.102,0.285 -0.217,0.533 -0.323,0.764c-0.107,0.232 -0.207,0.446 -0.287,0.679c-0.053,-0.121 -0.101,-0.258 -0.142,-0.409c0.071,-0.501 0.239,-0.858 0.429,-1.27c0.106,-0.231 0.221,-0.479 0.323,-0.764c0.13,0.138 0.259,0.248 0.372,0.344c0.145,0.127 0.259,0.229 0.346,0.33l-0.041,0.09c-0.098,0.211 -0.189,0.407 -0.264,0.616Zm10.365,-0.307c1.948,-1.374 2.923,-2.793 2.923,-4.256c0,-1.397 -0.895,-2.775 -2.686,-4.136c-1.253,-0.537 -3.957,-0.931 -8.11,-1.182l0,10.904c3.688,-0.179 6.105,-0.484 7.251,-0.913c0.135,-0.087 0.267,-0.173 0.395,-0.26c0.085,0.201 0.153,0.437 0.202,0.698c0.031,-0.004 0.064,-0.007 0.097,-0.007c-0.006,-0.298 -0.03,-0.584 -0.072,-0.848Zm-9.826,0.056c0.015,0.069 0.026,0.145 0.032,0.232c0.022,0.278 0.011,0.534 -0.033,0.764c-0.039,-0.181 -0.111,-0.314 -0.233,-0.451c0.078,-0.17 0.159,-0.349 0.234,-0.545Zm-6.148,0.376l-0.005,-0.144c-0.004,-0.204 -0.011,-0.444 -0.046,-0.82c0.131,-0.095 0.24,-0.167 0.314,-0.167c0.02,0 0.057,0 0.115,0.086c0.011,0.359 -0.016,0.654 -0.064,0.93c-0.023,-0.016 -0.04,-0.016 -0.051,-0.016c-0.064,0 -0.155,0.054 -0.263,0.131Zm13.586,-11.182c0.024,0.196 0.026,0.511 0.02,0.777c-0.049,-0.027 -0.1,-0.046 -0.145,-0.071c-0.004,-0.239 0,-0.515 0.028,-0.706l0.097,0Zm-11.664,0.311l-0.006,0.026c-0.302,-0.321 -0.683,-0.139 -0.882,0.344l-0.023,0.054c-0.055,-0.137 -0.085,-0.284 -0.09,-0.432c-0.003,-0.119 -0.02,-0.234 -0.048,-0.336c0.062,-0.078 0.117,-0.175 0.161,-0.286c0.216,-0.524 0.647,-0.694 0.957,-0.252c0.004,0.124 0.003,0.241 -0.002,0.352c-0.034,0.07 -0.074,0.133 -0.116,0.186c0.028,0.102 0.045,0.217 0.048,0.336l0.001,0.008Zm10.115,-2.502c0.007,0.184 -0.002,0.383 -0.026,0.594l-0.011,0.021c-0.029,-0.164 -0.072,-0.308 -0.131,-0.43c-0.209,-0.432 -0.716,-0.429 -0.989,-0.005c-0.059,-0.249 -0.076,-0.532 -0.021,-0.966c0.268,-0.458 0.796,-0.473 1.01,-0.029l0.003,0.007l-0.013,0.022c-0.055,0.434 -0.038,0.717 0.021,0.966c0.047,-0.072 0.1,-0.132 0.157,-0.18Z" style="fill:#ebedd5;"/><path d="M88.449,54.95c-0.713,0.105 -1.443,0.157 -2.189,0.157c-5.407,0 -9.919,-2.721 -13.535,-8.164c-1.11,-1.647 -1.88,-4.529 -2.31,-8.647c-0.286,-2.9 -0.43,-6.159 -0.43,-9.775l0,-1.236c0.072,-4.118 0.323,-7.788 0.752,-11.011c0.537,-4.117 1.415,-7 2.632,-8.647c1.22,-1.647 2.523,-3.013 3.909,-4.098c0.058,0.091 0.113,0.217 0.153,0.373l0.012,-0.035c0.029,-0.08 0.057,-0.156 0.091,-0.221c-0.019,-0.093 -0.031,-0.19 -0.034,-0.289c2.218,-1.679 4.646,-2.649 7.285,-2.909c-0.001,0.255 0.066,0.425 0.208,0.745c0.083,-0.053 0.148,-0.116 0.194,-0.16l0.004,-0.005l0.002,0.016c0.045,-0.035 0.097,-0.066 0.155,-0.088c-0.011,-0.146 -0.04,-0.282 -0.072,-0.438l-0.022,-0.109c0.332,-0.022 0.667,-0.033 1.006,-0.033c2.65,0 5.192,0.77 7.627,2.31c2.087,1.319 3.924,3.099 5.511,5.34c-0.072,0.536 -0.128,1.115 -0.152,1.771l0.066,-0.02c0.053,-0.568 0.129,-1.08 0.212,-1.572c0.22,0.317 0.436,0.644 0.647,0.98c0.869,1.387 1.514,3.59 1.934,6.61c-0.057,0.399 -0.062,0.704 0.006,0.954l0.001,-0.001c0.018,-0.121 0.041,-0.25 0.068,-0.389c0.343,2.73 0.515,6.086 0.515,10.067l0,1.611c-0.035,3.975 -0.232,7.502 -0.591,10.581c-0.501,3.939 -1.289,6.714 -2.363,8.325c-1.415,2.129 -2.964,3.842 -4.647,5.138c-0.098,-0.245 -0.227,-0.46 -0.366,-0.676c0.032,0.283 0.022,0.562 0.013,0.783c-0.002,0.056 -0.003,0.11 -0.004,0.161c-1.639,1.192 -3.403,1.997 -5.292,2.417c-0.02,-0.073 -0.043,-0.144 -0.065,-0.214c-0.035,-0.114 -0.071,-0.23 -0.096,-0.303c-0.235,0.069 -0.506,0.1 -0.726,0.033c-0.063,0.263 -0.103,0.475 -0.109,0.668Zm7.263,-5.176c-0.081,0.12 -0.138,0.272 -0.164,0.443c0.062,0.027 0.117,0.056 0.164,0.083c0.1,0.06 0.148,0.085 0.226,0.087c0.004,-0.051 0.003,-0.103 -0.004,-0.175c-0.014,-0.238 0.007,-0.423 0.068,-0.589c-0.1,-0.019 -0.208,0.035 -0.29,0.151Zm-1.473,-0.071c0.032,-0.138 0.057,-0.268 0.08,-0.394c-0.055,-0.049 -0.074,-0.06 -0.097,-0.064c-0.093,0.215 -0.201,0.583 -0.187,0.799c0.063,0.04 0.116,0.105 0.164,0.181c-0.012,-0.172 0.002,-0.35 0.04,-0.522Zm-14.885,-5.587c-0.119,0.029 -0.234,0.069 -0.347,0.12c-0.096,0.045 -0.2,0.057 -0.297,0.025c-0.063,0.145 -0.148,0.261 -0.246,0.347c-0.024,0.024 -0.048,0.049 -0.076,0.075c-0.007,0.118 -0.017,0.231 -0.027,0.347c-0.056,0.649 -0.102,1.219 -0.11,2.077c-0.001,0.098 -0.01,0.194 -0.026,0.285c-0.073,-0.141 -0.154,-0.281 -0.25,-0.404c0.168,-0.207 0.272,-0.531 0.276,-0.881c0.008,-0.858 0.054,-1.428 0.11,-2.077c0.01,-0.116 0.02,-0.229 0.027,-0.347c0.028,-0.026 0.052,-0.051 0.076,-0.075c0.098,-0.086 0.183,-0.202 0.246,-0.347c0.097,0.032 0.201,0.02 0.297,-0.025c0.294,-0.133 0.602,-0.192 0.949,-0.172c-0.009,0.067 -0.019,0.134 -0.03,0.201c-0.072,0.019 -0.146,0.019 -0.216,-0.004c-0.063,0.145 -0.148,0.261 -0.246,0.347c-0.024,0.024 -0.048,0.049 -0.076,0.075c-0.007,0.118 -0.017,0.231 -0.027,0.347l-0.007,0.086Zm13.385,-9.35c0.13,-1.914 0.209,-4.175 0.235,-6.783l0,-0.913c0,-6.624 -0.376,-10.885 -1.128,-12.783c-1.755,-2.757 -3.617,-4.136 -5.586,-4.136c-1.719,0 -3.366,1.039 -4.942,3.116c-0.931,2.041 -1.45,6.767 -1.557,14.179l0,2.31c0,6.087 0.394,10.044 1.181,11.87c1.683,2.471 3.456,3.706 5.318,3.706c1.862,0 3.634,-1.235 5.317,-3.706c0.522,-1.174 0.898,-3.31 1.13,-6.41c0.159,0.088 0.353,0.184 0.588,0.289c-0.027,-0.161 -0.079,-0.296 -0.157,-0.419c-0.091,-0.143 -0.234,-0.253 -0.399,-0.32Zm-16.08,8.948c-0.02,-0.07 -0.043,-0.138 -0.069,-0.203c-0.107,-0.038 -0.204,-0.06 -0.294,-0.06c-0.363,0 -0.478,0.299 -0.517,0.393c-0.037,0.097 -0.066,0.212 -0.086,0.339c-0.066,-0.513 -0.038,-1.019 0.086,-1.339c0.039,-0.094 0.154,-0.393 0.517,-0.393c0.09,0 0.187,0.022 0.294,0.06c0.066,0.163 0.11,0.339 0.132,0.522c-0.046,0.194 -0.067,0.43 -0.063,0.681Zm15.552,-3.761c-0.005,0.052 -0.011,0.11 -0.015,0.172c-0.006,0.036 -0.01,0.079 -0.013,0.123c0.164,0.062 0.305,0.2 0.394,0.385l0.09,0c0.004,-0.429 -0.053,-0.586 -0.092,-0.643c-0.027,-0.037 -0.128,-0.091 -0.364,-0.037Zm-20.533,-6.403l-0.002,-0.139l0.003,0.003l0,0.137l-0.001,-0.001Zm0.606,-1.465c0.006,0.073 0.01,0.152 0.01,0.239c-0.034,0.033 -0.067,0.065 -0.098,0.096c-0.034,-0.094 -0.071,-0.158 -0.101,-0.2c-0.172,-0.239 -0.464,-0.185 -0.689,0.069c-0.089,-0.141 -0.153,-0.287 -0.19,-0.467c0.215,-0.494 0.652,-0.689 0.879,-0.374c0.041,0.057 0.094,0.155 0.135,0.312c-0.01,0.02 -0.02,0.04 -0.029,0.062c0.02,0.096 0.047,0.182 0.083,0.263Zm-1.882,-1.088c-0.029,-0.013 -0.057,-0.03 -0.086,-0.051c-0.026,-0.46 0.008,-0.804 0.103,-0.986c0.035,-0.07 0.133,-0.251 0.501,-0.262c0.078,0.342 0.074,0.714 -0.02,0.991l-0.004,0.011c-0.348,0.017 -0.443,0.191 -0.477,0.26c-0.006,0.012 -0.012,0.024 -0.017,0.037Zm1.657,-10.289c-0.013,-0.052 -0.023,-0.105 -0.03,-0.155c-0.09,-0.667 0.156,-1.635 0.518,-2.182c0.371,0.738 0.53,1.795 0.412,2.325l-0.006,0.024c-0.066,-0.453 -0.205,-0.948 -0.406,-1.349c-0.225,0.34 -0.406,0.844 -0.488,1.337Zm3.436,-3.359c0.101,0.28 0.186,0.625 0.241,1.007c0.077,0.521 0.093,1.01 0.066,1.408c-0.012,-0.203 -0.033,-0.417 -0.066,-0.636c-0.112,-0.767 -0.339,-1.388 -0.588,-1.627c0.107,-0.075 0.224,-0.128 0.347,-0.152Zm-0.812,-0.016l-0.013,-0.001c-0.464,0 -0.881,0.407 -1.027,0.936c-0.037,-0.127 -0.056,-0.249 -0.056,-0.366c0,-0.712 0.506,-1.341 1.083,-1.341c0.129,0 0.255,0.03 0.372,0.091c0.035,0.018 0.071,0.044 0.105,0.077c-0.198,0.138 -0.363,0.351 -0.464,0.604Zm11.584,-8.169l-0.079,-0.177c-0.061,-0.141 -0.124,-0.285 -0.193,-0.417c0.006,-0.111 0.027,-0.199 0.063,-0.269c0.036,-0.073 0.143,-0.143 0.272,-0.143c0.128,0 0.211,0.062 0.223,0.081c0.081,0.384 0.279,0.657 0.51,0.726c-0.003,0.191 -0.047,0.522 -0.156,0.891c-0.013,-0.001 -0.026,-0.002 -0.038,-0.004c-0.144,-0.127 -0.259,-0.342 -0.316,-0.613c-0.012,-0.019 -0.095,-0.081 -0.223,-0.081c-0.022,0 -0.043,0.002 -0.063,0.006Zm-10.871,0.085c-0.027,-0.099 -0.042,-0.196 -0.042,-0.3c-0.02,0.095 -0.018,0.205 0,0.327c0.064,0.366 0.264,0.555 0.35,0.555c0.026,0 0.062,-0.019 0.101,-0.061c-0.191,-0.083 -0.341,-0.274 -0.409,-0.521Zm9.826,-0.585c0.073,-0.123 0.121,-0.197 0.137,-0.278c-0.031,-0.006 -0.054,-0.013 -0.074,-0.019c-0.126,-0.044 -0.239,-0.131 -0.328,-0.253c-0.034,0.164 -0.085,0.351 -0.157,0.567c0.007,0.01 0.017,0.02 0.027,0.028c0.08,0.09 0.18,0.2 0.28,0.306c0.018,-0.123 0.055,-0.243 0.115,-0.351Zm-0.892,-3.059l0,-0.066c0,-0.137 -0.027,-0.27 -0.076,-0.388c0.118,0.125 0.24,0.22 0.354,0.312c0.264,0.198 0.445,0.338 0.551,0.834c-0.045,0.02 -0.086,0.044 -0.123,0.079c-0.018,-0.224 -0.102,-0.432 -0.239,-0.577c-0.121,-0.129 -0.268,-0.194 -0.421,-0.194l-0.046,0Zm3.219,-1.377l0.101,1.103c0.025,-0.011 0.05,-0.016 0.073,-0.033l-0.174,-1.07Z" style="fill:#ebedd5;"/><path d="M224.297,55.107l-5.371,0l-1.719,-2.202l14.072,-51.509l1.719,-1.289l6.091,0c-0.115,0.038 -0.242,0.11 -0.385,0.206c0.007,0.325 0.039,0.644 0.091,0.941c0.63,-0.392 0.936,-0.217 1.185,1.325c0.039,-0.042 0.078,-0.089 0.117,-0.144c-0.06,-0.507 -0.121,-0.919 -0.188,-1.248c-0.036,0.02 -0.074,0.042 -0.114,0.067c-0.043,-0.245 -0.072,-0.506 -0.085,-0.772l-0.001,-0.002l1.185,0.916l14.126,51.509l-1.719,2.202l-5.425,0l-1.665,-1.289l-2.632,-9.453l-4.178,0c0.044,-0.139 0.1,-0.275 0.164,-0.402c-0.1,-0.24 -0.182,-0.299 -0.197,-0.307c-0.124,-0.082 -0.222,-0.202 -0.287,-0.349c-0.274,0.183 -0.545,0.606 -0.687,1.058l-9.8,0l-2.578,9.453l-1.719,1.289Zm28.561,-1.117c-0.059,-0.604 -0.032,-1.194 0.174,-1.713c0.3,0.137 0.491,0.463 0.664,0.909c0.008,0.245 -0.028,0.372 -0.219,0.533c-0.121,-0.207 -0.263,-0.359 -0.445,-0.442c-0.089,0.226 -0.145,0.465 -0.174,0.713Zm-26.11,-5.779c-0.005,-0.174 -0.051,-0.346 -0.137,-0.49c-0.026,-0.044 -0.034,-0.07 -0.027,-0.103c0.07,-0.11 0.171,-0.224 0.274,-0.224c0.112,0 0.241,0.134 0.325,0.335c0.024,0.054 0.05,0.104 0.08,0.148c-0.004,0.063 0,0.127 0.005,0.188c0.016,0.136 0.01,0.314 -0.071,0.472l-0.014,-0.031c-0.084,-0.201 -0.213,-0.335 -0.325,-0.335c-0.038,0 -0.075,0.015 -0.11,0.04Zm12.044,-3.846c0.092,-0.118 0.191,-0.215 0.289,-0.281c0.049,0.111 0.117,0.206 0.2,0.281l-0.489,0Zm9.162,-0.765c-0.19,0.216 -0.39,0.408 -0.617,0.559c-0.136,0.002 -0.269,-0.004 -0.391,-0.022l0,-0.777c0.229,0.034 0.504,0.026 0.753,-0.003c0.169,-0.017 0.341,-0.032 0.467,-0.011l-0.027,0.032c-0.064,-0.003 -0.126,-0.009 -0.185,-0.018l0,0.24Zm-7.722,-9.171l0.662,0l-4.781,-17.403l-4.78,17.403l8.134,0c0.016,0.124 0.035,0.25 0.055,0.376c0.32,0.224 0.676,0.387 1.026,0.548l0.047,0.021c0.028,0.282 0.087,0.562 0.161,0.833c-0.196,0.104 -0.364,0.321 -0.47,0.632c-0.128,0.355 -0.146,0.78 -0.061,1.21c0.016,-0.072 0.036,-0.142 0.061,-0.21c0.133,-0.39 0.363,-0.632 0.623,-0.689c0.139,0.094 0.219,0.311 0.267,0.496c-0.002,-0.04 -0.003,-0.079 -0.003,-0.119c0.054,0.178 0.096,0.336 0.126,0.478c0.092,-0.257 0.062,-0.577 -0.067,-1.05c-0.005,-0.048 -0.012,-0.096 -0.02,-0.143c-0.03,-0.156 -0.086,-0.398 -0.198,-0.555l-0.002,-0.006c-0.143,-0.426 -0.299,-0.896 -0.38,-1.376c-0.035,-0.023 -0.069,-0.046 -0.103,-0.07c-0.014,-0.085 -0.026,-0.171 -0.038,-0.255c-0.086,-0.04 -0.173,-0.08 -0.259,-0.121Zm-13.272,0.67c-0.46,0.016 -0.879,0.38 -1.038,0.86c-0.052,-0.132 -0.074,-0.277 -0.066,-0.431c0.035,-0.652 0.558,-1.207 1.136,-1.207c0.138,0 0.315,0.031 0.517,0.136c-0.24,0.137 -0.438,0.367 -0.549,0.642Zm0.872,0.015c-0.051,0.068 -0.108,0.137 -0.173,0.209c-0.052,-0.034 -0.102,-0.064 -0.151,-0.089c0.102,-0.058 0.211,-0.1 0.324,-0.12Zm0.427,-4.818c0.035,0.012 0.074,0.021 0.114,0.021l0.002,0c0.128,0 0.237,-0.073 0.285,-0.14c0.005,-0.011 0.011,-0.015 0.013,-0.02c-0.195,-0.171 -0.32,-0.402 -0.425,-0.603c-0.126,-0.233 -0.204,-0.362 -0.316,-0.419c-0.02,0.145 -0.021,0.339 -0.02,0.504c0.196,0.138 0.324,0.385 0.347,0.657Zm-3.871,-1.984c-0.05,-0.171 -0.059,-0.362 -0.059,-0.48c0,-0.297 0.057,-0.596 0.154,-0.808c0.024,-0.048 0.047,-0.092 0.072,-0.129c0.077,0.39 0.143,0.607 0.215,0.833c-0.056,0.155 -0.096,0.33 -0.125,0.539l-0.002,0.021c-0.029,-0.111 -0.057,-0.239 -0.088,-0.393c-0.025,0.037 -0.048,0.081 -0.072,0.129c-0.038,0.084 -0.071,0.182 -0.095,0.288Zm17.85,-0.712c-0.091,-0.145 -0.099,-0.319 -0.099,-0.374c0,-0.178 0.049,-0.345 0.137,-0.463c0.053,-0.072 0.112,-0.122 0.175,-0.154c0.009,0.022 0.015,0.042 0.026,0.057c0.077,0.165 0.08,0.665 0.013,0.795l-0.004,0.005l-0.009,-0.023c-0.011,-0.015 -0.017,-0.035 -0.026,-0.056c-0.063,0.031 -0.122,0.081 -0.175,0.153c-0.014,0.019 -0.027,0.039 -0.038,0.06Zm4.719,-3.36l-0.004,0.037l-0.016,0.003c0.003,-0.007 0.004,-0.012 0.008,-0.018l0.013,-0.04l-0.001,0.018Zm-1.67,-4.476c-0.043,0.053 -0.09,0.1 -0.141,0.141c-0.034,-0.315 0.031,-0.711 0.167,-1.244c0.142,0.122 0.231,0.225 0.283,0.359c-0.054,0.278 -0.138,0.499 -0.253,0.668l-0.03,-0.027l-0.026,0.103Zm-12.74,-2.925c-0.359,0.021 -0.637,0.323 -1.032,0.807c-0.029,0.037 -0.059,0.074 -0.089,0.11c-0.057,0.002 -0.113,0.005 -0.167,0.01c-0.026,-0.156 -0.054,-0.318 -0.105,-0.472c0.124,-0.134 0.243,-0.278 0.361,-0.425c0.479,-0.587 0.786,-0.907 1.272,-0.781c0.014,0.143 0.035,0.276 0.061,0.402c-0.095,0.101 -0.194,0.218 -0.301,0.349Zm0.452,0.277c0.041,0.165 0.076,0.334 0.092,0.519c-0.045,0.036 -0.09,0.067 -0.134,0.091l-0.004,-0.014c-0.037,-0.14 -0.074,-0.286 -0.105,-0.445c0.051,-0.055 0.101,-0.106 0.151,-0.151Zm6.137,-4.49c0.155,-0.001 0.254,-0.018 0.314,-0.041c0.003,-0.182 -0.018,-0.361 -0.086,-0.46c-0.02,-0.028 -0.065,-0.092 -0.205,-0.102c-0.024,0.148 -0.024,0.405 -0.023,0.603Z" style="fill:#ebedd5;"/><path d="M184.443,22.145l0,-10.272c0.229,-0.455 0.466,-0.722 0.876,-0.737c0.105,-0.235 0.205,-0.434 0.316,-0.592c-0.053,-0.145 -0.119,-0.281 -0.195,-0.405c-0.486,-0.037 -0.746,0.236 -0.997,0.733l0,-8.67l1.773,-1.772l6.23,0l0.054,0.107c2.757,0.108 5.228,0.304 7.412,0.591c1.176,0.152 2.246,0.336 3.211,0.552c-0.114,0.112 -0.225,0.227 -0.334,0.346c0.029,0.144 0.044,0.294 0.049,0.437c0.223,-0.229 0.486,-0.342 0.781,-0.342c0.038,0 0.076,0.002 0.114,0.006l0.065,-0.054l-0.009,-0.047c0.047,-0.051 0.094,-0.102 0.142,-0.152c1.806,0.467 3.187,1.06 4.145,1.778c4.548,3.366 6.821,7.43 6.821,12.193c0,3.724 -1.486,7.09 -4.458,10.097c1.314,1.174 2.29,2.503 2.928,3.987c-0.04,0 -0.086,0.004 -0.139,0.009c-0.279,0.43 -0.443,1.037 -0.609,1.674c0.049,0.066 0.099,0.125 0.15,0.179c0.123,-0.428 0.262,-0.82 0.459,-1.123c0.28,-0.031 0.354,0.01 0.474,0.145c0.307,0.934 0.491,1.924 0.551,2.971l0,19.444l-1.88,1.879l-3.289,0c0.126,-0.183 0.183,-0.429 0.143,-0.676c-0.016,-0.097 -0.026,-0.194 -0.03,-0.29c-0.065,0.213 -0.203,0.391 -0.391,0.478l-0.067,0.035c-0.122,0.065 -0.273,0.139 -0.463,0.147c-0.021,0.113 -0.042,0.214 -0.062,0.306l-2.501,0l-1.88,-1.879l0,-17.403c-0.465,-2.721 -2.077,-4.332 -4.834,-4.834l-0.215,0c-1.397,0.143 -2.918,0.251 -4.565,0.322l0,22.022l-1.773,1.772l-6.23,0l-1.773,-1.772l0,-29.712c0.121,-0.1 0.243,-0.12 0.323,-0.12c0.101,0 0.204,0.032 0.303,0.093c0.023,-0.265 0.077,-0.495 0.162,-0.681c0.02,-0.045 0.042,-0.085 0.065,-0.121c-0.162,-0.19 -0.348,-0.291 -0.53,-0.291c-0.024,0 -0.052,0.002 -0.083,0.007c0.029,-0.23 0.138,-0.437 0.301,-0.565l-0.004,-0.029c-0.013,-0.08 -0.027,-0.162 -0.042,-0.246c-0.017,0.045 -0.036,0.088 -0.06,0.129c-0.1,0.18 -0.256,0.304 -0.433,0.346l-0.002,0Zm24.932,32.647c-0.002,-0.129 0.021,-0.26 0.073,-0.381c0.035,0.087 0.085,0.167 0.147,0.235c0.018,0.019 0.035,0.039 0.051,0.059c-0.079,0.037 -0.169,0.071 -0.271,0.087Zm-0.151,-1.11c-0.066,-0.42 -0.019,-0.843 0.117,-1.082c0.076,-0.129 0.145,-0.129 0.172,-0.129c0.081,0 0.181,0.047 0.285,0.139c0.004,0.262 -0.055,0.445 -0.14,0.631c-0.052,-0.027 -0.101,-0.041 -0.145,-0.041c-0.027,0 -0.096,0 -0.172,0.129c-0.053,0.094 -0.093,0.215 -0.117,0.353Zm-1.379,-7.761c0.124,0.559 0.275,1.068 0.5,1.502c-0.095,0 -0.188,0.023 -0.273,0.069c-0.136,-0.41 -0.237,-0.861 -0.33,-1.342c0.04,-0.077 0.073,-0.154 0.103,-0.229Zm-2.423,0.409c0.176,-0.111 0.371,-0.159 0.522,-0.159c0.231,0 0.442,0.09 0.597,0.26c-0.073,0.08 -0.161,0.149 -0.267,0.199c-0.246,0.115 -0.53,0.051 -0.72,-0.175c-0.04,-0.047 -0.084,-0.089 -0.132,-0.125Zm-0.365,-0.151c-0.039,-0.006 -0.08,-0.008 -0.121,-0.008c-0.198,0 -0.47,0.082 -0.678,0.28c-0.07,-0.117 -0.153,-0.226 -0.256,-0.316c0.156,-0.502 0.631,-0.694 0.934,-0.694c0.179,0 0.347,0.055 0.486,0.159c-0.176,0.111 -0.334,0.285 -0.412,0.535c0.016,0.015 0.032,0.029 0.047,0.044Zm1.484,-0.477c0.174,-0.188 0.268,-0.435 0.343,-0.629c0.004,-0.012 0.01,-0.022 0.013,-0.032c0.167,0.04 0.254,0.094 0.347,0.143c0.146,0.091 0.274,0.155 0.488,0.187l0.01,0.05c-0.1,0.191 -0.24,0.377 -0.46,0.479l-0.035,0.015l-0.003,-0.002c-0.093,-0.049 -0.18,-0.103 -0.347,-0.143c-0.003,0.01 -0.009,0.02 -0.013,0.032c-0.015,0.038 -0.03,0.078 -0.047,0.119c-0.102,-0.036 -0.196,-0.102 -0.274,-0.195l-0.022,-0.024Zm-13.794,-4.332c-0.011,0.023 -0.024,0.046 -0.039,0.068c-0.189,-0.374 -0.585,-0.603 -0.769,-0.368c-0.036,0.048 -0.097,0.151 -0.142,0.352c-0.019,-0.012 -0.039,-0.024 -0.059,-0.036c-0.009,-0.695 0.135,-0.959 0.201,-1.045c0.209,-0.267 0.694,0.065 0.835,0.531c-0.019,0.134 -0.03,0.298 -0.027,0.498Zm-3.003,-5.034c-0.04,-0.245 -0.125,-0.396 -0.237,-0.396c-0.108,0 -0.24,0.092 -0.344,0.243c-0.08,0.11 -0.133,0.239 -0.168,0.379c0.137,-0.161 0.329,-0.237 0.515,-0.228c0.084,0.008 0.175,0.01 0.234,0.002Zm17.107,-0.973c-0.038,-0.188 -0.131,-0.356 -0.264,-0.471c0.041,-0.045 0.097,-0.096 0.135,-0.135c0.131,-0.122 0.244,-0.229 0.332,-0.365c0.046,0.017 0.094,0.033 0.141,0.047c0.058,0.021 0.117,0.038 0.176,0.061c0.011,0.008 0.022,0.012 0.032,0.012c-0.038,0.102 -0.06,0.214 -0.06,0.331l0,0.14c-0.068,0.053 -0.132,0.111 -0.192,0.171l-0.001,0c-0.032,-0.01 -0.065,-0.021 -0.096,-0.033c-0.058,0.089 -0.126,0.166 -0.203,0.242Zm1.09,-1.166c0.049,0.159 0.074,0.342 0.074,0.528c0.003,0.007 0.057,0.066 0.159,0.066c0.059,0 0.101,-0.018 0.129,-0.035c-0.032,-0.209 -0.022,-0.425 0.02,-0.621c-0.096,-0.003 -0.21,-0.011 -0.356,-0.04c-0.011,0.037 -0.018,0.066 -0.026,0.102Zm0.635,-1.075l-0.11,0.031c-0.076,0.017 -0.151,0.023 -0.224,0.007c-0.002,0.141 0.007,0.3 0.022,0.481c0.006,0.047 0.006,0.096 0.005,0.142c0.035,-0.011 0.073,-0.023 0.107,-0.037c0.068,-0.021 0.238,-0.078 0.276,-0.129c0,0 0.003,-0.029 -0.001,-0.075c-0.034,-0.148 -0.031,-0.298 0.001,-0.439c-0.027,0.007 -0.054,0.015 -0.076,0.019Zm-3.71,-1.799c-0.032,-0.004 -0.064,-0.006 -0.096,-0.006c-0.302,0 -0.572,0.194 -0.745,0.536c-0.096,0.186 -0.161,0.417 -0.195,0.687c-0.071,-0.712 -0.006,-1.299 0.195,-1.687c0.173,-0.342 0.443,-0.536 0.745,-0.536c0.183,0 0.357,0.071 0.505,0.2c-0.096,0.086 -0.181,0.199 -0.25,0.336c-0.069,0.134 -0.123,0.292 -0.159,0.47Zm0.837,-0.003c0.053,0.252 0.083,0.614 0.018,1.103c-0.02,-0.126 -0.047,-0.23 -0.075,-0.312c-0.083,-0.253 -0.212,-0.456 -0.371,-0.594c0.126,-0.114 0.272,-0.182 0.428,-0.197Zm5.68,-1.855c-0.035,-0.002 -0.072,-0.007 -0.111,-0.019c-0.029,-0.106 -0.015,-0.256 0.051,-0.625c0.038,-0.21 0.08,-0.447 0.1,-0.715l0.326,-0.011c0.111,0 0.191,0.008 0.249,0.024c-0.057,0.466 -0.11,0.775 -0.174,0.977l-0.075,-0.001l-0.326,0.011c-0.009,0.126 -0.024,0.246 -0.04,0.359Zm-15.892,-1.155c-0.058,-0.066 -0.107,-0.145 -0.152,-0.223c-0.008,0.017 -0.014,0.035 -0.018,0.05c-0.015,0.039 -0.046,0.107 -0.066,0.156c-0.008,0.017 -0.02,0.041 -0.029,0.066c0.066,0.016 0.133,0.047 0.195,0.087c0.026,-0.044 0.046,-0.087 0.07,-0.136Zm12.807,-0.066l-0.03,0.076c-0.212,-0.235 -0.416,-0.373 -0.758,-0.307c-0.082,0.121 -0.142,0.265 -0.181,0.426c-0.113,-0.578 -0.046,-1.089 0.181,-1.426c0.379,-0.074 0.589,0.105 0.829,0.388c-0.067,0.244 -0.082,0.531 -0.041,0.843Zm-5.96,-0.867l0.011,-0.002c0.28,-0.92 0.668,-1.934 1.157,-1.934c0.079,0 0.167,0.027 0.26,0.08c0.087,-0.189 0.179,-0.356 0.277,-0.49l0.005,-0.025c-0.202,-0.192 -0.388,-0.294 -0.542,-0.294c-0.626,0 -1.088,1.667 -1.368,2.665c-0.008,0.025 -0.014,0.052 -0.023,0.078c0.068,-0.039 0.141,-0.067 0.22,-0.078l0.003,0Zm-2.021,-3.365c0.071,0.231 0.088,0.498 0.052,0.753c-0.034,-0.093 -0.065,-0.186 -0.092,-0.289c-0.01,-0.232 0.016,-0.374 0.04,-0.464Zm-14.914,-0.353c0.002,0.191 -0.007,0.38 -0.027,0.557c-0.015,-0.141 -0.038,-0.278 -0.069,-0.408l-0.011,-0.014c0.034,-0.054 0.07,-0.099 0.107,-0.135Zm25.749,-0.714c0.008,0.297 0.022,0.382 0.028,0.407c0.005,0 0.037,0.043 0.138,0.096c0.216,-0.372 0.23,-0.711 0.185,-0.982c-0.165,0 -0.293,0.011 -0.369,0.037c0.01,0.163 0.014,0.307 0.018,0.442Zm-10.807,-2.084l0.017,0.069c0.114,0.506 0.432,0.794 0.754,0.703c0.052,-0.018 0.101,-0.038 0.152,-0.063c0.035,0.117 0.066,0.237 0.094,0.36c0.044,0.195 0.118,0.358 0.212,0.479c-0.049,0.022 -0.099,0.05 -0.156,0.08c-0.111,0.065 -0.202,0.111 -0.302,0.144c-0.322,0.091 -0.64,-0.197 -0.754,-0.703c-0.038,-0.168 -0.082,-0.33 -0.132,-0.487c0.026,-0.202 0.065,-0.398 0.115,-0.582Zm1.476,1.751l0.006,0.002l-0.005,0.006l-0.003,-0.009l0.002,0.001Zm0.831,-1.136c0.072,0.058 0.128,0.128 0.183,0.204c0.016,0.023 0.046,0.06 0.064,0.076c0.047,-0.103 0.11,-0.187 0.191,-0.257c-0.024,-0.039 -0.047,-0.083 -0.066,-0.124c-0.112,0.047 -0.225,0.049 -0.33,0.014c-0.013,0.033 -0.027,0.059 -0.042,0.087Zm-1.078,-0.067c0.055,-0.025 0.11,-0.042 0.17,-0.044c0.02,0.087 0.045,0.169 0.075,0.246c-0.09,-0.04 -0.173,-0.109 -0.245,-0.202Zm8.427,-0.663c-0.189,-0.002 -0.351,0.074 -0.517,0.212c-0.037,0.015 -0.072,0.033 -0.107,0.055c-0.125,0.08 -0.226,0.202 -0.289,0.352l-0.042,0.048l-0.094,0.108c-0.038,-0.044 -0.082,-0.085 -0.131,-0.119c-0.106,-0.074 -0.222,-0.111 -0.34,-0.111l-0.018,0c0.021,-0.071 0.038,-0.153 0.053,-0.247c0.149,-0.012 0.295,-0.091 0.408,-0.218l0.122,-0.142c0.429,-0.496 0.703,-0.762 1.164,-0.637c-0.001,0.011 -0.005,0.025 -0.008,0.035c-0.042,0.158 -0.087,0.335 -0.106,0.555l-0.042,0.047l-0.053,0.062Zm-9.806,0.106c0.526,-0.102 0.951,-0.213 1.275,-0.334c2.363,-1.504 3.545,-3.062 3.545,-4.673c0,-1.397 -0.896,-2.775 -2.686,-4.136c-1.253,-0.537 -3.957,-0.931 -8.11,-1.182l0,10.904c2.051,-0.1 3.709,-0.238 4.973,-0.415l0.001,0.046c0,0.138 0.007,0.292 0.028,0.449c0.02,-0.176 0.05,-0.348 0.089,-0.512c0.252,-0.037 0.487,-0.075 0.707,-0.114c0.07,0.157 0.133,0.319 0.189,0.487c-0.009,-0.108 -0.013,-0.213 -0.013,-0.31c-0.001,-0.07 0,-0.14 0.002,-0.21Zm-14.173,-0.15l0,0.19c-0.146,-0.094 -0.424,-0.124 -0.656,-0.148c-0.163,-0.013 -0.326,-0.032 -0.482,-0.068c-0.053,-0.228 -0.125,-0.453 -0.238,-0.647c0.041,-0.031 0.077,-0.074 0.111,-0.115c0.193,0.058 0.401,0.084 0.609,0.101c0.097,0.01 0.202,0.021 0.301,0.038c0.106,0.188 0.174,0.404 0.225,0.623c0.043,0.01 0.086,0.018 0.13,0.026Zm22.218,-2.644c0.005,0.335 0.002,0.663 0,0.979l0,0.014c-0.007,-0.315 -0.004,-0.647 0,-0.993Zm1.518,-2.607c0.023,0.096 0.042,0.188 0.057,0.271c0.112,0.609 0.151,1.33 0.117,2.055c-0.018,-0.373 -0.057,-0.73 -0.117,-1.055c-0.057,-0.315 -0.166,-0.76 -0.351,-1.051c0.101,-0.096 0.2,-0.17 0.294,-0.22Zm-23.458,1.861c-0.007,-0.185 -0.055,-0.358 -0.145,-0.553c-0.031,-0.071 -0.061,-0.136 -0.08,-0.218c0.02,0.008 0.044,0.014 0.067,0.02c0.192,0.055 0.393,0.006 0.554,-0.128c0.283,-0.127 0.303,-0.055 0.327,-0.01c0.066,0.141 0.047,0.422 -0.04,0.679c-0.036,-0.021 -0.111,-0.019 -0.287,0.06c-0.117,0.097 -0.255,0.15 -0.396,0.15Zm22.825,-1.927c-0.029,-0.008 -0.059,-0.012 -0.09,-0.012c-0.247,0 -0.54,0.213 -0.844,0.603c-0.023,-0.285 -0.058,-0.571 -0.108,-0.855c0.342,-0.482 0.676,-0.748 0.952,-0.748c0.175,0 0.316,0.121 0.429,0.298c-0.124,0.118 -0.252,0.269 -0.381,0.45c0.016,0.088 0.03,0.176 0.042,0.264Zm-20.408,-0.024c-0.053,-0.13 -0.077,-0.266 -0.078,-0.379c0,-0.185 0.052,-0.344 0.151,-0.461c0.062,-0.077 0.17,-0.165 0.35,-0.208c0.05,0.095 0.116,0.178 0.191,0.249c0.125,0.21 0.258,0.547 0.234,0.867c-0.046,0.015 -0.091,0.036 -0.132,0.062c-0.032,-0.074 -0.068,-0.142 -0.102,-0.2c-0.075,-0.071 -0.141,-0.154 -0.191,-0.249c-0.18,0.043 -0.288,0.131 -0.35,0.208c-0.029,0.034 -0.053,0.071 -0.073,0.111Zm16.349,-4.208c0.054,0.267 0.142,0.528 0.24,0.79c0.1,0.276 0.207,0.561 0.269,0.894c-0.006,0.094 -0.006,0.194 0.002,0.288c-0.016,0.132 -0.045,0.241 -0.092,0.343c-0.054,-0.184 -0.118,-0.356 -0.179,-0.525c-0.217,-0.578 -0.388,-1.154 -0.24,-1.79Zm-19.261,0.194c0.016,0.217 0.008,0.436 -0.025,0.649l-0.011,0.054c-0.029,-0.175 -0.074,-0.345 -0.134,-0.505c0.054,-0.076 0.11,-0.142 0.17,-0.198Zm19.847,-0.311c-0.03,0.006 -0.062,0.014 -0.09,0.019c0.006,0.014 0.017,0.03 0.03,0.055c0.03,0.054 0.057,0.109 0.081,0.165c0.163,-0.08 0.268,-0.218 0.322,-0.408c-0.068,0.063 -0.144,0.106 -0.23,0.132l-0.113,0.037Zm-1.273,0.169c-0.034,-0.459 -0.028,-0.888 0.028,-1.222c0.088,-0.533 0.231,-0.533 0.316,-0.533c0.137,0 0.309,0.091 0.499,0.253c-0.137,0.295 -0.199,0.575 -0.209,0.846c-0.108,-0.065 -0.205,-0.099 -0.29,-0.099c-0.085,0 -0.228,0 -0.316,0.533c-0.012,0.07 -0.021,0.144 -0.028,0.222Zm5.459,-2.186l0,0.022l0.084,0c-0.032,-0.135 -0.042,-0.274 -0.038,-0.412c-0.014,-0.026 -0.028,-0.059 -0.042,-0.088c-0.021,0.008 -0.042,0.023 -0.065,0.04c0.028,0.102 0.047,0.212 0.054,0.33l0.007,0.108Zm-11.916,-3.05c0.023,0.083 0.039,0.171 0.049,0.262c-0.012,-0.028 -0.022,-0.056 -0.029,-0.083c-0.017,-0.064 -0.021,-0.126 -0.02,-0.179Zm1.509,-1.159c0.115,0.379 0.136,0.81 0.063,1.263c-0.032,-0.176 -0.082,-0.344 -0.15,-0.501c-0.088,-0.202 -0.202,-0.373 -0.329,-0.502c0.107,-0.142 0.243,-0.243 0.416,-0.26Zm-0.503,0.181c-0.141,-0.118 -0.295,-0.184 -0.446,-0.184c-0.23,0 -0.399,0.146 -0.522,0.343c-0.031,-0.206 -0.098,-0.395 -0.196,-0.541c0.112,-0.381 0.327,-0.802 0.718,-0.802c0.183,0 0.369,0.096 0.533,0.263c-0.115,0.152 -0.195,0.35 -0.251,0.539c0.072,0.107 0.128,0.238 0.164,0.382Zm3.821,-0.351c0.06,-0.128 0.156,-0.236 0.286,-0.32c0.154,0.021 0.236,0.104 0.369,0.233c0.028,0.03 0.059,0.057 0.092,0.087c-0.032,0.119 -0.041,0.246 -0.028,0.371c0.06,-0.112 0.105,-0.242 0.131,-0.329c-0.136,-0.222 -0.172,-0.514 -0.103,-0.772c-0.033,-0.029 -0.064,-0.056 -0.092,-0.086c-0.133,-0.13 -0.215,-0.212 -0.369,-0.233c-0.253,0.164 -0.377,0.418 -0.363,0.732c-0.013,-0.04 -0.028,-0.081 -0.044,-0.123c-0.053,0.259 -0.095,0.522 -0.064,0.627c0.015,0.044 0.05,0.092 0.107,0.14c0.039,-0.048 0.072,-0.104 0.081,-0.172c0.006,-0.043 0.005,-0.095 -0.003,-0.155Zm-16.695,-0.144c-0.005,-0.338 -0.021,-0.676 -0.047,-1.022c0.236,0.116 0.501,0.218 0.806,0.251c-0.03,0.069 -0.066,0.142 -0.113,0.226c-0.067,0.126 -0.144,0.277 -0.21,0.472c-0.088,0.009 -0.178,0.05 -0.257,0.116l-0.026,0.025c-0.052,-0.021 -0.103,-0.044 -0.153,-0.068Zm12.678,-0.715l-0.016,-0.812l0.013,0l0.003,0.812Zm-1.813,-0.424c0.024,-0.081 0.031,-0.176 -0.011,-0.28c-0.066,-0.163 -0.221,-0.276 -0.388,-0.277l-0.002,0c-0.071,0.028 -0.143,0.042 -0.217,0.032c0.014,0.016 0.025,0.029 0.036,0.043c0.118,0.119 0.261,0.276 0.355,0.482l0.227,0Zm1.262,-1.287c0.032,0.155 0.047,0.295 0.062,0.42c0.035,0.294 0.047,0.408 0.168,0.453c0.041,-0.145 0.104,-0.276 0.158,-0.39c0.048,-0.102 0.08,-0.176 0.098,-0.234c-0.156,-0.002 -0.311,-0.066 -0.437,-0.2c-0.017,-0.02 -0.034,-0.033 -0.049,-0.049Z" style="fill:#ebedd5;"/><path d="M158.094,14.54c-0.392,0.316 -0.776,0.661 -1.151,1.036c-1.289,1.253 -1.987,5.228 -2.094,11.924l0,1.665c0,5.693 0.519,9.131 1.557,10.313c1.674,1.841 3.539,3.067 5.596,3.679c-0.096,0.085 -0.204,0.13 -0.313,0.13c0.007,0.051 0.014,0.107 0.018,0.158c0.173,0.112 0.304,0.282 0.411,0.449c0.014,-0.076 0.037,-0.152 0.063,-0.221c0.004,-0.038 0.01,-0.067 0.017,-0.107c-0.007,-0.009 -0.016,-0.028 -0.024,-0.042c-0.051,-0.111 -0.085,-0.226 -0.117,-0.351c1.007,0.293 2.06,0.44 3.158,0.44c2.312,0 4.465,-0.691 6.46,-2.073l0.01,0.033c0.082,-0.042 0.157,-0.103 0.226,-0.185l-0.004,-0.012c0.152,-0.11 0.302,-0.223 0.451,-0.341l2.417,0.322l4.942,6.338l-0.322,2.417c-4.226,3.33 -8.952,4.995 -14.18,4.995c-3.035,0 -5.953,-0.596 -8.755,-1.79c0.019,-0.085 0.032,-0.172 0.042,-0.26c-0.045,-0.155 -0.159,-0.451 -0.254,-0.692c-0.082,0.093 -0.166,0.206 -0.244,0.348c0.041,0.113 0.098,0.266 0.181,0.485c-0.214,-0.094 -0.426,-0.192 -0.638,-0.293c-0.171,-0.081 -0.342,-0.164 -0.511,-0.25c0.117,-0.194 0.242,-0.332 0.356,-0.438c0.215,-0.196 0.346,-0.574 0.344,-0.98c0,-0.134 -0.002,-0.271 -0.005,-0.466c-0.003,-0.096 -0.005,-0.211 -0.005,-0.331c-0.035,0.326 -0.156,0.614 -0.334,0.777c-0.234,0.218 -0.515,0.569 -0.673,1.276c-2.529,-1.323 -4.795,-3.083 -6.799,-5.281c-2.041,-2.256 -3.384,-5.658 -4.028,-10.205c-0.358,-2.471 -0.538,-5.192 -0.538,-8.164l0,-1.504c0.036,-3.617 0.323,-6.875 0.86,-9.776c0.595,-3.174 1.517,-5.773 2.765,-7.797c0.008,-0.005 0.016,-0.01 0.024,-0.014l-0.012,-0.005c0.55,-0.89 1.165,-1.668 1.842,-2.335c4.655,-4.655 10.116,-6.982 16.382,-6.982c2.882,0 5.646,0.532 8.291,1.597c-0.07,0.308 -0.08,0.701 -0.029,1.157c0.023,-0.151 0.058,-0.286 0.106,-0.401c0.13,-0.318 0.381,-0.465 0.64,-0.452c0.166,0.073 0.331,0.148 0.495,0.226l-0.003,0.003c0.079,0.077 0.149,0.173 0.206,0.289c0.062,0.122 0.104,0.252 0.132,0.383c0.012,-0.053 0.021,-0.108 0.028,-0.164c0.011,-0.098 0.019,-0.209 0.02,-0.327c0.071,0.035 0.141,0.07 0.212,0.106c0.134,0.067 0.269,0.136 0.403,0.206c-0.062,0.004 -0.123,-0.004 -0.183,-0.023l0,0.29c0.222,0.048 0.381,0.188 0.483,0.276l0.07,0.063c0.078,-0.076 0.143,-0.174 0.19,-0.287l0.015,-0.01c1.15,0.636 2.256,1.359 3.318,2.17l0.162,2.578l-5.533,5.909l-2.309,0.214c-2.041,-1.504 -4.279,-2.255 -6.714,-2.255c-1.387,0 -2.703,0.237 -3.947,0.713c-0.013,-0.058 -0.022,-0.119 -0.025,-0.182c-0.002,-0.038 -0.007,-0.079 -0.015,-0.121c-0.096,0.009 -0.189,0.026 -0.279,0.05c0.05,0.011 0.099,0.024 0.149,0.038c0.009,0.094 0.024,0.182 0.041,0.265c-1.015,0.402 -1.983,0.964 -2.902,1.685c0.243,-0.891 0.779,-1.658 1.545,-1.937c0.301,-0.409 0.695,-0.713 1.168,-0.837c-0.179,-0.041 -0.353,-0.061 -0.523,-0.061c-1.398,0 -2.261,1.465 -2.333,2.949Zm-2.245,37.51c-0.046,-0.379 -0.054,-0.797 -0.062,-1.175c-0.008,-0.208 -0.014,-0.655 -0.053,-0.951l-0.001,0.02l-0.002,-0.173c-0.006,-0.238 -0.011,-0.585 0.003,-0.847c0.039,0.296 0.045,0.743 0.053,0.951c0.01,0.454 0.019,0.965 0.094,1.398c0.004,0.041 0.012,0.087 0.023,0.124c0.019,0.079 0.044,0.162 0.1,0.315c-0.055,0.098 -0.107,0.21 -0.155,0.338Zm10.499,-2.698c-0.071,0.049 -0.141,0.091 -0.221,0.117c0.075,0.144 0.17,0.222 0.301,0.326c0.014,0.018 0.03,0.031 0.045,0.042c-0.007,-0.013 -0.011,-0.032 -0.017,-0.049c-0.045,-0.139 -0.087,-0.279 -0.108,-0.436Zm4.76,-1.65c0.032,0.096 0.064,0.189 0.087,0.254c0.001,0.006 0.003,0.015 0.007,0.022c0.086,-0.011 0.147,-0.04 0.191,-0.07c-0.001,-0.026 -0.005,-0.051 -0.008,-0.072c-0.095,-0.019 -0.187,-0.06 -0.269,-0.127l-0.008,-0.007Zm2.078,-1.211c-0.029,-0.141 -0.045,-0.287 -0.045,-0.433c0,-0.166 0.025,-0.397 0.139,-0.544c0.033,-0.047 0.087,-0.098 0.17,-0.13c0.004,0.006 0.009,0.015 0.013,0.023c0.011,0.123 0.041,0.24 0.09,0.351c-0.024,0.225 0.017,0.453 0.116,0.635c0.107,0.197 0.239,0.309 0.373,0.375c-0.115,0.238 -0.197,0.304 -0.211,0.319c-0.051,0.037 -0.096,0.084 -0.136,0.138c-0.009,-0.015 -0.018,-0.03 -0.026,-0.046c-0.099,-0.182 -0.14,-0.41 -0.116,-0.634c-0.049,-0.112 -0.079,-0.229 -0.09,-0.351c-0.004,-0.009 -0.009,-0.018 -0.013,-0.024c-0.083,0.032 -0.137,0.083 -0.17,0.13c-0.043,0.054 -0.073,0.121 -0.094,0.191Zm-23.719,-6.555l-0.014,-0.087c-0.144,-0.2 -0.234,-0.2 -0.274,-0.2c-0.15,0 -0.34,0.17 -0.542,0.356c-0.06,0.053 -0.115,0.099 -0.17,0.143l0,-1c0.055,-0.044 0.109,-0.09 0.17,-0.143c0.202,-0.186 0.392,-0.356 0.542,-0.356c0.04,0 0.13,0 0.274,0.2c0.016,0.089 0.028,0.183 0.037,0.28l-0.023,0.019l0,0.788Zm2.986,-4.884c0.021,0.033 0.048,0.075 0.142,0.089c0.011,-0.029 0.017,-0.061 0.028,-0.087c0.077,-0.224 0.143,-0.412 0.174,-0.628c-0.153,0.051 -0.316,0.034 -0.463,-0.053c0.004,0.335 0.039,0.574 0.119,0.679Zm-2.449,-0.646c-0.012,0.065 -0.034,0.131 -0.064,0.197c-0.068,-0.038 -0.132,-0.092 -0.189,-0.159l0,-0.002c-0.203,-0.042 -0.349,0.024 -0.509,0.155c-0.054,0.045 -0.116,0.094 -0.188,0.141c-0.041,-0.215 -0.077,-0.453 -0.095,-0.73c0.115,-0.062 0.207,-0.134 0.283,-0.197c0.16,-0.131 0.306,-0.197 0.509,-0.155l0,0.002c0.086,0.102 0.19,0.174 0.298,0.206c-0.01,0.035 -0.018,0.071 -0.023,0.108c-0.02,0.012 -0.041,0.024 -0.063,0.036c0.01,0.142 0.024,0.274 0.041,0.398Zm0.884,-1.301l0.006,0.055l-0.017,0.008l0.009,-0.074l0.002,0.011Zm-3.63,-4.078c0.125,1.336 -0.254,2.328 -0.707,3.147c-0.139,0 -0.283,0.008 -0.419,0.027c-0.074,0.007 -0.149,0.018 -0.219,0.021c0.053,-0.088 0.109,-0.175 0.164,-0.261c0.487,-0.774 1.059,-1.681 1.181,-2.934Zm3.387,0.729c0.254,0.394 0.541,0.801 0.895,1.048c0.015,0.296 -0.014,0.524 -0.067,0.737c-0.37,-0.286 -0.665,-0.741 -0.929,-1.156l-0.05,-0.076c0.024,-0.096 0.052,-0.196 0.081,-0.3c0.023,-0.083 0.047,-0.168 0.07,-0.253Zm-0.256,0.393c-0.245,-0.366 -0.461,-0.644 -0.671,-0.726c-0.038,0.199 -0.094,0.396 -0.147,0.586c-0.06,0.211 -0.111,0.403 -0.145,0.584c-0.106,-0.414 -0.007,-0.833 0.145,-1.37c0.053,-0.191 0.109,-0.388 0.147,-0.586c0.239,0.093 0.487,0.442 0.777,0.886c-0.058,0.225 -0.098,0.43 -0.106,0.626Zm-1.394,-0.727c0.003,0.192 0.003,0.381 -0.009,0.555c-0.004,-0.206 -0.003,-0.389 0.009,-0.555Zm2.215,-0.763c-0.223,0.028 -0.372,0.111 -0.438,0.248c-0.053,0.1 -0.065,0.266 -0.064,0.427c0.066,0.045 0.132,0.071 0.192,0.071l0.004,0c0.152,0 0.283,-0.142 0.334,-0.347c0.033,-0.134 0.022,-0.266 -0.028,-0.399Zm-3.907,-0.661c-0.024,-0.208 -0.087,-0.431 -0.178,-0.645c-0.065,0.104 -0.113,0.235 -0.142,0.384c-0.01,-0.057 -0.018,-0.115 -0.023,-0.175c-0.019,-0.184 -0.016,-0.362 0.008,-0.523c-0.142,-0.245 -0.32,-0.462 -0.516,-0.611c-0.073,-0.059 -0.133,-0.125 -0.183,-0.205c-0.028,0.118 -0.072,0.224 -0.136,0.324c-0.152,0.23 -0.219,0.608 -0.177,1.015c0.005,0.06 0.013,0.118 0.023,0.175c0.031,-0.158 0.083,-0.297 0.154,-0.404c0.064,-0.1 0.108,-0.206 0.136,-0.324c0.05,0.08 0.11,0.146 0.183,0.205c0.313,0.24 0.58,0.651 0.731,1.073c0.034,-0.008 0.066,-0.016 0.092,-0.026c0.014,0.265 0.007,0.516 -0.016,0.754c0.385,-0.145 0.694,-0.435 1.005,-0.73l0.012,-0.011c-0.004,-0.085 -0.011,-0.171 -0.019,-0.258c0.307,-0.115 0.565,-0.322 0.814,-0.551c-0.004,-0.03 -0.006,-0.062 -0.008,-0.094l-0.013,-0.172c-0.018,-0.186 -0.005,-0.374 0.035,-0.544c-0.309,0.153 -0.56,0.387 -0.821,0.63c-0.299,0.284 -0.596,0.563 -0.961,0.713Zm-2.012,-0.096l-0.041,0.018c-0.015,-0.053 -0.032,-0.107 -0.052,-0.163c-0.297,0.008 -0.523,0.114 -0.669,0.322c-0.095,0 -0.181,-0.015 -0.248,-0.046c0.022,-0.396 0.096,-0.7 0.212,-0.898c0.144,-0.246 0.383,-0.37 0.705,-0.378c0.104,0.299 0.15,0.55 0.143,0.799c-0.022,0.105 -0.039,0.22 -0.05,0.346Zm0.736,-2.635c-0.033,-0.039 -0.073,-0.083 -0.121,-0.134c-0.082,-0.086 -0.135,-0.142 -0.166,-0.202c0.156,-0.122 0.276,-0.328 0.314,-0.574c0.002,-0.006 0.016,-0.089 0.016,-0.093c0,-0.019 0.008,-0.047 0.01,-0.072c0.039,0.015 0.081,0.025 0.123,0.032c0.027,0.004 0.067,0.01 0.101,0.088c0.041,0.111 0.037,0.367 -0.048,0.719c-0.019,-0.016 -0.038,-0.019 -0.053,-0.021c-0.042,-0.007 -0.084,-0.016 -0.123,-0.032c-0.002,0.025 -0.01,0.053 -0.01,0.072c0,0.004 -0.014,0.088 -0.016,0.093c-0.006,0.043 -0.016,0.084 -0.027,0.124Zm9.376,-9.733c0.08,0.199 0.131,0.437 0.155,0.717c-0.041,0.081 -0.072,0.167 -0.091,0.258c-0.076,-0.268 -0.193,-0.478 -0.355,-0.636c0.065,-0.132 0.151,-0.248 0.258,-0.344l0.033,0.005Zm-0.438,0.218c-0.164,-0.112 -0.363,-0.186 -0.599,-0.223c-0.184,0.167 -0.307,0.39 -0.366,0.653c-0.114,-0.608 0.019,-1.124 0.366,-1.44c0.313,0.05 0.56,0.163 0.746,0.345c-0.095,0.191 -0.145,0.416 -0.147,0.665Zm1.111,-3.355l-0.025,0.145c-0.119,-0.005 -0.234,-0.06 -0.339,-0.172c-0.086,-0.091 -0.183,-0.187 -0.281,-0.229c-0.019,0.258 -0.081,0.463 -0.17,0.654c-0.104,-0.106 -0.16,-0.224 -0.183,-0.389c-0.036,-0.223 -0.031,-0.229 0.072,-0.404c0.148,-0.252 0.256,-0.508 0.281,-0.861c0.098,0.042 0.195,0.138 0.281,0.229c0.106,0.113 0.223,0.168 0.344,0.172c0.06,0.17 0.077,0.322 0.064,0.512c-0.073,0.125 -0.074,0.152 -0.044,0.343Zm-7.316,-1.13c-0.06,-0.566 0.024,-1.194 0.156,-1.536c0.188,0.097 0.315,0.297 0.392,0.468c0.204,0.437 0.28,1.066 0.215,1.606c-0.034,-0.3 -0.106,-0.587 -0.215,-0.82c-0.077,-0.171 -0.204,-0.37 -0.392,-0.468c-0.071,0.185 -0.128,0.454 -0.156,0.75Zm-1.075,-1.759c0.147,0.014 0.292,0.124 0.417,0.23c0.109,0.093 0.23,0.198 0.37,0.285c0.002,0.361 -0.118,0.479 -0.349,0.7l-0.018,0.018l-0.003,-0.003c-0.062,-0.053 -0.129,-0.106 -0.199,-0.148c-0.025,-0.225 -0.091,-0.43 -0.187,-0.589c0.035,-0.036 0.075,-0.069 0.119,-0.097c0.052,-0.064 0.107,-0.118 0.168,-0.152c-0.055,-0.02 -0.113,-0.047 -0.168,-0.087c-0.057,-0.039 -0.107,-0.092 -0.15,-0.157Zm14.853,0.973c-0.036,-0.044 -0.077,-0.082 -0.12,-0.113l0,-0.562c0.098,-0.073 0.181,-0.172 0.24,-0.293c0.013,0.02 0.027,0.036 0.042,0.06c0.069,0.12 0.111,0.302 0.111,0.497c0,0.036 -0.003,0.226 -0.062,0.398c-0.014,-0.04 -0.031,-0.077 -0.049,-0.109c-0.015,-0.024 -0.029,-0.04 -0.042,-0.06c-0.033,0.068 -0.073,0.129 -0.12,0.182Zm7.677,-0.566c-0.089,0.066 -0.144,0.121 -0.174,0.182c0.105,0.032 0.191,0.07 0.265,0.097c0.053,0.026 0.108,0.058 0.17,0.066c0.072,0.015 0.139,0.045 0.202,0.087c-0.1,-0.193 -0.248,-0.345 -0.463,-0.432Zm-22.756,-0.178l-0.008,-0.005l0.003,-0.067l0.005,0.072Zm31.168,-1.272c-0.006,-0.11 -0.023,-0.226 -0.062,-0.293c-0.027,-0.057 -0.069,-0.097 -0.125,-0.119c-0.037,0.043 -0.078,0.087 -0.12,0.121c0.007,0.208 0.034,0.367 0.08,0.455c0.007,0.016 0.023,0.045 0.059,0.073c0.053,-0.097 0.11,-0.175 0.168,-0.237Zm-15.756,-0.886c0.004,0.237 0.011,0.476 0.026,0.711l-0.031,0.011c-0.003,-0.263 -0.009,-0.491 -0.022,-0.689l0.027,-0.033Zm3.268,0.031c-0.06,-0.266 -0.098,-0.576 -0.096,-0.958c0.05,-0.014 0.101,-0.041 0.146,-0.073c0.015,0.029 0.031,0.062 0.042,0.085c0.057,0.122 0.142,0.299 0.209,0.418c0.129,0.218 0.298,0.33 0.471,0.336c-0.007,0.022 -0.01,0.039 -0.014,0.051c-0.093,0.304 -0.282,0.512 -0.489,0.553c-0.061,-0.113 -0.129,-0.255 -0.177,-0.358c-0.011,-0.023 -0.027,-0.056 -0.042,-0.085c-0.016,0.011 -0.033,0.022 -0.05,0.031Zm-4.178,-0.171c-0.163,0.307 -0.418,0.439 -0.659,0.338c-0.251,-0.101 -0.445,-0.432 -0.499,-0.847c-0.037,-0.288 -0.096,-0.519 -0.178,-0.697c-0.154,-0.33 -0.379,-0.483 -0.701,-0.472c-0.303,0 -0.632,-0.338 -0.712,-0.83c-0.039,-0.231 -0.09,-0.446 -0.145,-0.666c-0.03,0.003 -0.058,0.005 -0.086,0.004c-0.031,-0.269 -0.059,-0.558 -0.087,-0.865c-0.004,-0.048 -0.01,-0.097 -0.014,-0.145c0.059,0.011 0.121,0.014 0.187,0.006c0.055,0.22 0.106,0.435 0.145,0.666c0.08,0.492 0.409,0.83 0.712,0.83c0.096,-0.004 0.184,0.008 0.263,0.035l0.025,0.135c0.067,0.411 0.306,0.714 0.561,0.803c0.011,0.062 0.021,0.127 0.03,0.196c0.054,0.415 0.248,0.746 0.499,0.847c0.158,0.066 0.322,0.032 0.462,-0.086c0.015,0.075 0.028,0.155 0.039,0.239c0.025,0.193 0.08,0.367 0.158,0.509Zm0,-1l0.015,-0.029c0.039,-0.076 0.179,-0.151 0.279,-0.208c0.134,-0.069 0.307,-0.162 0.452,-0.345c0.076,0.194 0.115,0.438 0.136,0.755c-0.154,0.18 -0.352,0.244 -0.541,0.165c-0.135,-0.054 -0.253,-0.175 -0.341,-0.338Zm14.925,-1.706c-0.029,0.17 -0.027,0.369 -0.004,0.52c0.083,-0.091 0.116,-0.308 0.116,-0.418c0.003,-0.178 -0.03,-0.246 -0.068,-0.282c-0.014,0.036 -0.031,0.098 -0.044,0.18Zm-11.778,-0.718c-0.012,0.084 -0.031,0.173 -0.057,0.268c-0.166,-0.295 -0.67,-0.295 -0.878,-0.047c-0.089,-0.23 -0.139,-0.475 -0.068,-0.671c0.137,-0.37 0.803,-0.406 0.964,-0.031c0.011,0.023 0.02,0.049 0.027,0.075c-0.033,0.124 -0.023,0.264 0.012,0.406Z" style="fill:#ebedd5;"/><path d="M107.798,43.75l0,-41.763l1.772,-1.772l6.284,0l0.054,0.107c0.658,0.026 1.301,0.057 1.93,0.094c-0.177,0.214 -0.352,0.505 -0.497,0.868c-0.249,0.613 -0.336,1.248 -0.247,1.775l0.017,0.016c0.046,-0.261 0.123,-0.528 0.23,-0.791c0.334,-0.832 0.816,-1.282 1.139,-1.309c0.097,-0.194 0.202,-0.361 0.31,-0.499c1.611,0.109 3.121,0.255 4.53,0.437c3.868,0.501 6.607,1.343 8.218,2.524c4.548,3.366 6.821,7.448 6.821,12.247c0,0.584 -0.037,1.162 -0.113,1.733c-0.023,0.062 -0.041,0.129 -0.055,0.201c-0.01,-0.055 -0.017,-0.111 -0.023,-0.169c-0.018,-0.177 -0.014,-0.348 0.008,-0.503c-0.136,-0.235 -0.305,-0.444 -0.492,-0.588c-0.07,-0.056 -0.127,-0.12 -0.175,-0.197c-0.027,0.114 -0.069,0.216 -0.13,0.312c-0.145,0.222 -0.208,0.585 -0.169,0.976c0.005,0.058 0.013,0.114 0.022,0.169c0.03,-0.153 0.08,-0.286 0.147,-0.389c0.061,-0.096 0.103,-0.198 0.13,-0.311c0.048,0.077 0.105,0.14 0.175,0.196c0.197,0.153 0.375,0.376 0.515,0.628c-0.285,1.797 -0.948,3.528 -1.988,5.193c-1.468,2.327 -3.527,4.314 -6.177,5.961c-0.282,0.178 -0.601,0.345 -0.956,0.502c0.042,-0.049 0.084,-0.094 0.127,-0.135c-0.043,-0.069 -0.091,-0.128 -0.142,-0.175c-0.08,-0.073 -0.149,-0.164 -0.199,-0.277c-0.077,0.091 -0.163,0.156 -0.257,0.185c-0.301,0.104 -0.613,0.443 -0.877,0.896c-0.699,0.214 -1.491,0.402 -2.376,0.563l0.001,-0.002c-0.003,-0.002 -0.011,-0.006 -0.015,-0.01l0.001,0.015c-0.945,0.172 -1.994,0.314 -3.149,0.426c-1.396,0.143 -2.936,0.25 -4.619,0.322l0,22.129l-1.719,1.772l-4.56,0c-0.004,-0.089 -0.011,-0.179 -0.023,-0.267l-0.016,-0.045c-0.264,0.021 -0.591,-0.032 -0.858,-0.088c-0.038,-0.006 -0.073,-0.014 -0.11,-0.021c0.029,0.137 0.043,0.278 0.048,0.421l-0.765,0l-1.772,-1.772l0,-8.829c0.018,-0.03 0.036,-0.062 0.053,-0.094c0.001,-0.037 0,-0.073 -0.002,-0.109c0.016,0.007 0.032,0.012 0.049,0.017c0.084,-0.17 0.155,-0.358 0.214,-0.563l0.216,0c0.017,0.13 0.051,0.27 0.115,0.407l0.008,-0.008c0.105,-0.109 0.2,-0.233 0.285,-0.372c-0.038,-0.027 -0.074,-0.059 -0.108,-0.096c-0.193,-0.217 -0.272,-0.467 -0.3,-0.687l-0.216,0c-0.081,0.282 -0.186,0.532 -0.314,0.749Zm1.39,6.749c-0.22,-0.159 -0.435,-0.606 -0.597,-0.965c0.051,0.025 0.111,0.062 0.161,0.092l0.09,0.057c0.118,0.065 0.248,0.086 0.372,0.054c0.095,0.121 0.214,0.192 0.337,0.221l0,0.138c0.003,0.115 0.023,0.224 0.058,0.324c-0.098,0.09 -0.187,0.139 -0.264,0.139c-0.031,0 -0.063,-0.008 -0.094,-0.023l-0.037,-0.043c-0.008,0.002 -0.017,0.004 -0.026,0.006Zm-0.179,-6.547l0.015,-0.045l0.006,-0.019c0.01,0 0.02,0 0.03,-0.001l-0.051,0.065Zm0.684,-1.724l-0.009,-0.107c-0.026,-0.297 -0.042,-0.512 -0.026,-0.681c0.032,0.03 0.066,0.058 0.095,0.085c0.103,0.096 0.18,0.169 0.232,0.248c-0.015,0.037 -0.029,0.075 -0.046,0.116c-0.064,0.147 -0.119,0.283 -0.163,0.414l-0.023,-0.021l-0.06,-0.054Zm0.769,-5.158c0.021,-0.048 0.041,-0.097 0.06,-0.142c-0.071,-0.049 -0.155,-0.104 -0.254,-0.17c-0.041,-0.028 -0.087,-0.06 -0.13,-0.09c-0.066,0.092 -0.149,0.163 -0.239,0.209c-0.003,0.039 0,0.086 0,0.12c0.103,0.033 0.197,0.037 0.395,0.058l0.168,0.015Zm5.618,-1.092c-0.003,0 -0.003,0 -0.003,-0.004l0,0.744l0.003,-0.74Zm0.095,-0.128c0.045,-0.023 0.082,-0.057 0.106,-0.108c0.032,-0.073 0.048,-0.184 0.04,-0.324c-0.116,0.089 -0.184,0.21 -0.214,0.381c0.023,0.014 0.046,0.032 0.068,0.051Zm-0.643,-6.43c-0.053,0.011 -0.105,0.023 -0.158,0.035c-0.212,0.057 -0.431,0.1 -0.65,0.072c-0.057,0.526 -0.29,1.031 -0.505,1.491c-0.173,0.371 -0.297,0.666 -0.367,0.914c-0.161,-0.395 -0.019,-0.843 0.367,-1.671c0.215,-0.459 0.448,-0.965 0.505,-1.491c0.219,0.028 0.438,-0.014 0.65,-0.072c0.14,-0.03 0.275,-0.066 0.427,-0.079c0.033,0.048 0.063,0.101 0.088,0.159c-0.068,0.003 -0.137,0.001 -0.206,-0.008c-0.024,0.221 -0.079,0.438 -0.151,0.65Zm0.503,0.099c0,0.124 -0.012,0.249 -0.036,0.369c-0.024,-0.128 -0.061,-0.249 -0.109,-0.354c0.048,-0.003 0.096,-0.008 0.145,-0.015Zm-6.285,-2.295c-0.047,-0.078 -0.107,-0.146 -0.174,-0.2c-0.01,-0.117 0.005,-0.316 0.015,-0.416c0.003,-0.052 0.007,-0.099 0.009,-0.15c0.314,0.037 0.571,-0.029 0.77,-0.159c-0.02,0.017 -0.041,0.04 -0.062,0.061c-0.163,0.194 -0.236,0.444 -0.301,0.668c-0.022,0.076 -0.041,0.136 -0.058,0.184c-0.063,0.009 -0.129,0.013 -0.199,0.012Zm8.197,-0.931c-0.063,-0.053 -0.129,-0.1 -0.192,-0.141c-0.262,0.126 -0.431,0.389 -0.594,0.643c-0.05,0.078 -0.097,0.149 -0.143,0.214c-0.084,-0.13 -0.188,-0.216 -0.304,-0.247c0.003,-0.029 0.006,-0.058 0.009,-0.08c0.006,-0.04 0.01,-0.079 0.01,-0.123c0.014,-0.007 0.024,-0.019 0.037,-0.026c0.137,-0.109 0.249,-0.275 0.391,-0.495c0.163,-0.254 0.332,-0.516 0.594,-0.642c0.176,0.114 0.383,0.281 0.468,0.484c-0.035,0.052 -0.069,0.106 -0.103,0.158c-0.062,0.096 -0.118,0.18 -0.173,0.255Zm-5.731,-0.144c-0.072,-0.035 -0.149,-0.071 -0.231,-0.109l-0.035,0.109l-0.254,0l-0.01,0c0.247,0.003 0.471,0.192 0.575,0.484c0.009,0.026 0.02,0.052 0.032,0.079l0.091,0.05l0.062,0.033c0.067,-0.188 0.172,-0.314 0.302,-0.459c0.039,-0.042 0.069,-0.08 0.096,-0.108c-0.06,-0.026 -0.117,-0.052 -0.171,-0.077l-0.035,-0.002l-0.422,0Zm16.507,-1.088c0.034,0.431 0.007,0.887 -0.018,1.316l-0.008,0.161c-0.032,-0.271 -0.022,-0.647 0.008,-1.161c0.006,-0.104 0.013,-0.209 0.018,-0.316Zm0.975,0.446c-0.248,-0.472 -0.603,-0.797 -0.961,-0.854c0.007,-0.345 -0.007,-0.689 -0.07,-1.008c0.401,0.024 0.807,0.395 1.071,0.941l-0.001,0.067l0.035,0.007c0.078,0.172 0.141,0.36 0.186,0.558c0.092,0.404 0.1,0.791 0.029,1.145c-0.008,-0.048 -0.018,-0.096 -0.029,-0.145c-0.052,-0.227 -0.127,-0.44 -0.22,-0.631c0.002,-0.177 -0.002,-0.353 -0.015,-0.526c-0.005,0.107 -0.012,0.212 -0.018,0.316l-0.007,0.13Zm-18.189,0.642c0.135,-0.132 0.238,-0.292 0.318,-0.457c-0.214,-0.121 -0.458,-0.253 -0.8,-0.408c-0.096,0.316 -0.259,0.692 -0.554,0.936c0.082,-0.047 0.171,-0.071 0.265,-0.071l0.253,0l0.036,-0.109c0.082,0.038 0.159,0.074 0.231,0.109l0.251,0Zm15.14,-1.004l0.003,0.044c0.016,0.301 -0.004,0.42 -0.1,0.533c-0.066,-0.164 -0.161,-0.3 -0.278,-0.4c0.122,-0.099 0.251,-0.155 0.375,-0.177Zm-0.847,-0.009l-0.033,-0.002c-0.267,0 -0.586,0.163 -0.805,0.576c-0.075,-0.123 -0.143,-0.253 -0.202,-0.395c0.163,-0.865 0.635,-1.181 1.007,-1.181c0.192,0 0.364,0.068 0.505,0.188c-0.194,0.156 -0.369,0.417 -0.472,0.814Zm-0.924,-4.726c2.363,-1.54 3.545,-3.115 3.545,-4.726c0,-1.397 -0.877,-2.775 -2.632,-4.136c-1.289,-0.537 -4.028,-0.949 -8.218,-1.236l0,10.958c3.724,-0.144 6.159,-0.43 7.305,-0.86Zm8.529,-0.161c-0.261,0.026 -0.464,0.14 -0.631,0.331c-0.202,0.069 -0.39,0.162 -0.553,0.257c0.262,-0.974 0.569,-1.556 1.235,-1.592l0.005,0.036c0.034,0.187 0.096,0.351 0.178,0.48c-0.087,0.138 -0.164,0.301 -0.234,0.488Zm-17.039,-1.332c-0.015,-0.047 -0.034,-0.093 -0.055,-0.136c-0.041,-0.077 -0.056,-0.252 0.02,-0.515c0.055,-0.19 0.142,-0.35 0.218,-0.456c0.092,0.119 0.212,0.207 0.344,0.238c0.004,0 0.063,0.012 0.068,0.016c0.058,0.012 0.113,0.025 0.173,0.047c-0.019,0.373 -0.065,0.46 -0.105,0.543c-0.026,0.054 -0.05,0.109 -0.07,0.165c-0.011,-0.005 -0.062,-0.015 -0.066,-0.015c-0.132,-0.031 -0.252,-0.118 -0.344,-0.238c-0.062,0.086 -0.13,0.207 -0.183,0.351Zm-7.699,-3.974c-0.213,0 -0.261,0.133 -0.291,0.213c-0.05,0.132 -0.073,0.36 -0.035,0.628c0.234,0.009 0.385,-0.101 0.535,-0.279c-0.017,-0.074 -0.047,-0.15 -0.092,-0.254c-0.038,-0.09 -0.079,-0.186 -0.117,-0.308Zm28.609,0.299c-0.032,-0.038 -0.069,-0.08 -0.115,-0.129c-0.079,-0.083 -0.129,-0.136 -0.158,-0.195c0.148,-0.116 0.262,-0.315 0.299,-0.552c0.002,-0.005 0.016,-0.085 0.016,-0.09c0,-0.017 0.006,-0.044 0.009,-0.068c0.037,0.014 0.077,0.024 0.117,0.03c0.026,0.004 0.064,0.01 0.096,0.085c0.039,0.106 0.036,0.353 -0.045,0.691c-0.019,-0.015 -0.037,-0.018 -0.051,-0.02c-0.04,-0.006 -0.08,-0.015 -0.117,-0.03c-0.003,0.024 -0.009,0.051 -0.009,0.069c0,0.004 -0.014,0.084 -0.016,0.089c-0.006,0.041 -0.015,0.081 -0.026,0.12Zm-22.224,-0.226c0.002,-0.094 -0.01,-0.19 -0.034,-0.283c-0.034,-0.137 -0.097,-0.263 -0.177,-0.354c0.046,-0.033 0.113,-0.073 0.213,-0.12c0.148,-0.07 0.265,-0.208 0.338,-0.376c0,0.003 0.001,0.007 0.003,0.009c0.053,0.117 0.08,0.292 0.08,0.487c0,0.135 -0.015,0.269 -0.04,0.386c-0.011,-0.043 -0.024,-0.083 -0.04,-0.117c-0.002,-0.002 -0.003,-0.006 -0.003,-0.009c-0.073,0.169 -0.19,0.306 -0.338,0.376l-0.002,0.001Zm16.771,-1.63c0.003,-0.086 0.011,-0.178 0.023,-0.289c0.001,-0.027 0.004,-0.049 0.007,-0.08c-0.027,-0.003 -0.053,-0.01 -0.08,-0.018c-0.045,0.19 -0.107,0.356 -0.185,0.508c0.076,-0.015 0.161,-0.064 0.235,-0.121Zm2.463,-1.911c0.04,0.066 0.126,0.137 0.316,0.113c0.029,-0.134 0.034,-0.353 0.032,-0.545c-0.045,-0.032 -0.089,-0.063 -0.131,-0.098c-0.048,-0.032 -0.087,-0.064 -0.125,-0.091c-0.082,0.123 -0.127,0.29 -0.13,0.426c-0.036,-0.142 -0.088,-0.281 -0.147,-0.396c-0.013,0.034 -0.029,0.065 -0.046,0.102c0,0 -0.042,0.107 -0.073,0.452c0.107,0.097 0.193,0.237 0.256,0.409c0.013,-0.017 0.024,-0.026 0.035,-0.043c0.006,-0.011 0.027,-0.045 0.027,-0.161c-0.001,-0.054 -0.005,-0.111 -0.014,-0.168Zm-20.215,-0.005c0.002,0.041 0.002,0.082 0.004,0.125c0.06,0.034 0.107,0.071 0.153,0.102c0.002,0.001 0.004,0.003 0.006,0.004l0.012,0.011c0.002,0.002 0.004,0.004 0.006,0.005c0.011,-0.015 0.025,-0.034 0.042,-0.063c0.028,-0.039 0.058,-0.079 0.089,-0.112c-0.109,0.009 -0.217,-0.031 -0.314,-0.113l0.002,0.041Zm21.491,-2.785c0.025,-0.096 0.063,-0.193 0.108,-0.279c-0.186,-0.358 -0.616,-0.861 -0.893,-0.861c-0.031,0 -0.107,0 -0.153,0.237c0.295,0.137 0.552,0.443 0.764,0.705c0.052,0.062 0.114,0.136 0.174,0.198Zm-1.846,-0.812c-0.061,0.044 -0.134,0.07 -0.219,0.079c0.063,-0.277 0.137,-0.541 0.213,-0.81c0.055,-0.205 0.112,-0.409 0.166,-0.627c0.094,0.257 0.138,0.581 0.085,0.896c-0.005,0.031 -0.012,0.061 -0.019,0.09c-0.018,-0.081 -0.04,-0.158 -0.066,-0.229c-0.052,0.208 -0.106,0.405 -0.16,0.601Zm-7.458,-3.307l0.003,0.001l-0.113,0.169l0.096,-0.175l0.014,0.005Zm-0.344,-0.987c-0.053,0.026 -0.105,0.064 -0.154,0.113c-0.121,0.119 -0.23,0.252 -0.33,0.394l-0.026,-0.027c-0.371,-0.409 -0.714,-0.674 -1.111,-0.979c-0.169,-0.127 -0.342,-0.259 -0.526,-0.409c-0.156,-0.397 -0.214,-0.76 -0.165,-1.136c0.248,0.209 0.473,0.381 0.691,0.545c0.129,0.099 0.253,0.194 0.374,0.292c0.026,0.098 0.06,0.197 0.1,0.299c0.184,0.15 0.357,0.282 0.526,0.409c0.219,0.168 0.422,0.324 0.621,0.499Zm-6.793,-2.444c0.109,0.25 0.277,0.418 0.469,0.456c0.235,0.041 0.393,0.23 0.5,0.465c0.014,0.039 0.029,0.076 0.046,0.111c0.091,0.246 0.135,0.522 0.156,0.729c0.031,0.299 0.029,0.627 -0.007,0.937c-0.053,-0.452 -0.214,-1.158 -0.695,-1.242c-0.27,-0.054 -0.494,-0.364 -0.57,-0.799c-0.031,-0.183 -0.07,-0.333 -0.118,-0.453c0.074,-0.082 0.148,-0.15 0.219,-0.204Zm8.821,1.985c0.029,0.219 0.104,0.414 0.204,0.572c-0.082,0.022 -0.16,0.071 -0.23,0.141c-0.03,-0.272 -0.081,-0.458 -0.142,-0.586c0.056,-0.048 0.112,-0.09 0.168,-0.127Zm-16.592,0.413c-0.049,0.021 -0.097,0.043 -0.143,0.066c-0.046,0.021 -0.089,0.055 -0.13,0.09c0.024,-0.366 0.17,-0.881 0.441,-1.115c0.08,0.244 0.143,0.419 0.223,0.559c-0.026,0.075 -0.043,0.153 -0.053,0.239c-0.045,0.028 -0.089,0.052 -0.131,0.072l-0.039,-0.114c-0.062,0.054 -0.119,0.124 -0.168,0.203Zm14.909,-0.628l0.02,-0.036c0.277,-0.513 0.745,-0.902 1.094,-0.902c0.095,0 0.27,0 0.401,0.28c-0.186,0.159 -0.362,0.377 -0.495,0.622c-0.024,0.047 -0.051,0.089 -0.079,0.126c-0.137,0.042 -0.282,0.129 -0.422,0.249c-0.129,0.001 -0.259,-0.06 -0.374,-0.185c-0.049,-0.053 -0.097,-0.105 -0.145,-0.154Z" style="fill:#ebedd5;"/><path d="M262.421,55.107l-2.299,0l-1.772,-1.772l0,-45.283c0.035,0.171 0.056,0.348 0.076,0.518l0,0c0.19,-0.279 0.371,-0.627 0.499,-1.078c0,0 0.004,0 0.005,-0.002c0.141,0.31 0.275,0.78 0.342,1.244l0.001,-0.006c0.139,-0.624 -0.092,-1.686 -0.343,-2.238c-0.001,0.002 -0.005,0.002 -0.005,0.002c-0.145,0.512 -0.359,0.891 -0.575,1.187l0,-5.907l1.772,-1.772l29.917,0l1.773,1.772l0,6.338l-1.773,1.719l-2.545,0c-0.009,-0.195 0.021,-0.363 0.091,-0.497c-0.018,-0.035 -0.039,-0.067 -0.063,-0.096c-0.207,-0.26 -0.775,-0.237 -0.961,0.039c-0.092,0.144 -0.133,0.33 -0.123,0.554l-0.071,0c0,-0.031 0,-0.061 -0.001,-0.091c-0.031,0.033 -0.062,0.063 -0.094,0.091l-6.771,0c-0.016,-0.255 -0.056,-0.491 -0.113,-0.702c-0.096,0.063 -0.191,0.171 -0.284,0.323c0.068,0.107 0.132,0.235 0.187,0.379l-1.373,0c0.026,-0.073 0.057,-0.143 0.092,-0.211c0.19,-0.373 0.385,-0.559 0.588,-0.559c0.075,0 0.154,0.029 0.233,0.085c0.036,-0.189 0.096,-0.365 0.179,-0.526c0.031,-0.061 0.062,-0.117 0.094,-0.168c-0.158,-0.249 -0.341,-0.391 -0.506,-0.391c-0.203,0 -0.398,0.186 -0.588,0.559c-0.176,0.344 -0.25,0.759 -0.215,1.211l-9.616,0l0,10.313l14.394,0l1.773,1.772l0,6.284l-1.773,1.773l-14.394,0l0,23.364l-1.773,1.772l-3.185,0c-0.002,-0.041 -0.008,-0.08 -0.019,-0.115c-0.008,-0.025 -0.026,-0.08 -0.098,-0.138c-0.118,0.113 -0.269,0.182 -0.432,0.186c-0.157,0.006 -0.225,0.039 -0.244,0.059l-0.007,0.008Zm-0.046,-4.563l0.002,-0.002c0.068,-0.145 0.147,-0.246 0.226,-0.323c0.018,-0.242 -0.038,-0.329 -0.163,-0.519c-0.026,-0.044 -0.054,-0.092 -0.085,-0.143c-0.058,0.169 -0.129,0.318 -0.218,0.44c0.008,0.033 0.019,0.065 0.03,0.098c0.096,0.288 0.149,0.404 0.208,0.449Zm-3.598,-4.816c-0.036,-0.129 -0.054,-0.262 -0.054,-0.379c0,-0.198 0.039,-0.363 0.116,-0.476c0.03,-0.044 0.062,-0.073 0.097,-0.101c0.041,0.072 0.09,0.138 0.145,0.193c0.094,0.154 0.066,0.432 -0.019,0.71c-0.047,-0.051 -0.09,-0.11 -0.126,-0.173c-0.035,0.028 -0.067,0.058 -0.097,0.101c-0.025,0.037 -0.046,0.079 -0.062,0.125Zm5.39,-4.566l0.001,-0.731l-0.001,0l0,0.731l0,0Zm0.198,-0.769c-0.014,0.005 -0.029,0.01 -0.044,0.014c-0.095,-0.18 -0.057,-0.351 0.028,-0.681c0.081,-0.318 0.175,-0.689 0.104,-1.135c0.07,-0.014 0.139,-0.039 0.203,-0.076c0.082,0.174 0.15,0.412 0.179,0.686c0.004,0.044 0.01,0.085 0.021,0.122c-0.005,0.041 -0.01,0.085 -0.011,0.126c0,0.117 -0.011,0.229 -0.031,0.328c-0.035,-0.21 -0.092,-0.392 -0.158,-0.532c-0.064,0.037 -0.133,0.062 -0.203,0.076c0.067,0.416 -0.011,0.768 -0.088,1.072Zm2.202,-0.853c-0.084,-0.071 -0.162,-0.176 -0.263,-0.314c-0.01,-0.016 -0.021,-0.031 -0.031,-0.044c0.144,-0.35 0.435,-0.535 0.618,-0.328c0.002,0.106 -0.027,0.183 -0.075,0.298c-0.042,0.111 -0.081,0.221 -0.107,0.346c-0.046,0 -0.094,0.015 -0.142,0.042Zm-2.503,-6.939c0.053,-0.097 0.095,-0.21 0.124,-0.334c0.016,-0.062 0.027,-0.099 0.032,-0.122c0.286,0.063 0.473,0.201 0.559,0.405c0.108,0.269 0.105,0.692 0.052,1.18c-0.013,-0.066 -0.031,-0.126 -0.052,-0.18c-0.086,-0.204 -0.273,-0.342 -0.559,-0.405l-0.009,0.036c-0.023,-0.05 -0.049,-0.096 -0.077,-0.138l-0.002,-0.003c0.059,-0.052 0.12,-0.103 0.184,-0.149c-0.097,-0.063 -0.183,-0.161 -0.252,-0.29Zm-0.873,0.183c0.039,0.043 0.081,0.079 0.125,0.107c-0.108,0.076 -0.206,0.168 -0.301,0.254l-0.097,0.089c-0.131,-0.308 -0.328,-0.467 -0.587,-0.467c-0.134,0 -0.276,0.048 -0.414,0.133l0,0c-0.07,-0.25 -0.147,-0.54 -0.264,-0.788c0.209,-0.213 0.455,-0.345 0.678,-0.345c0.181,0 0.331,0.077 0.45,0.229c-0.044,0.035 -0.087,0.074 -0.128,0.116c0.117,0.248 0.194,0.538 0.264,0.788l0,0c0.091,-0.056 0.183,-0.096 0.274,-0.116Zm-4.36,-0.04c0.024,0.073 0.08,0.121 0.162,0.14c0.022,-0.113 0.04,-0.256 0.036,-0.447c-0.069,-0.051 -0.143,-0.069 -0.232,-0.072c-0.014,0.172 0.003,0.303 0.034,0.379Zm17.469,-5.633c0.055,0.071 0.114,0.165 0.152,0.296c0.025,-0.12 0.038,-0.228 0.042,-0.324c-0.006,-0.071 -0.008,-0.142 -0.005,-0.212c-0.025,-0.239 -0.11,-0.39 -0.189,-0.49l-0.746,0c-0.074,0.105 -0.104,0.261 -0.115,0.389c-0.018,0.18 -0.004,0.371 0.03,0.543c0.018,-0.073 0.044,-0.145 0.085,-0.202l0.746,0Zm-14.13,-0.604c-0.2,0.204 -0.409,0.384 -0.647,0.525c-0.143,0.003 -0.282,-0.003 -0.409,-0.02l0,-0.73c0.239,0.032 0.528,0.024 0.789,-0.003c0.177,-0.016 0.357,-0.03 0.489,-0.01l-0.028,0.03c-0.067,-0.003 -0.132,-0.009 -0.194,-0.017l0,0.225Zm12.907,-0.177c0.033,0 0.063,0 0.091,-0.003c-0.093,-0.099 -0.169,-0.242 -0.225,-0.412c-0.371,-1.165 -0.767,-1.772 -1.324,-2.018c-0.018,0.319 0.039,0.715 0.131,1.067c0.38,0.217 0.683,0.628 0.959,1.302c0.126,0.044 0.247,0.064 0.366,0.064l0.002,0Zm-9.417,-5.391c-0.996,0.302 -1.703,2.324 -1.987,4.529l-0.093,-0.094c0.204,-2.716 1.065,-5.474 2.339,-5.474c0.167,0 0.337,0.047 0.511,0.142c-0.285,0.169 -0.542,0.482 -0.77,0.897Zm0.77,0.103c0.155,-0.093 0.319,-0.142 0.489,-0.142c0.113,0 0.228,0.022 0.345,0.066c0.183,0.559 0.245,1.03 0.283,1.643c0.022,0.393 0.169,0.718 0.368,0.885c-0.08,0.255 -0.143,0.506 -0.196,0.754c-0.095,-0.171 -0.158,-0.392 -0.172,-0.639c-0.044,-0.708 -0.12,-1.227 -0.377,-1.91c-0.251,-0.307 -0.499,-0.527 -0.74,-0.657Zm-7.76,1.659c-0.061,-0.011 -0.108,-0.027 -0.14,-0.043c-0.022,-0.412 0.049,-0.652 0.143,-0.966c0.014,-0.05 0.03,-0.108 0.047,-0.165c0.025,0.027 0.053,0.055 0.08,0.078c0.255,0.237 0.353,0.358 0.375,0.613c-0.087,0.157 -0.153,0.332 -0.205,0.502l-0.051,0c-0.035,-0.036 -0.075,-0.073 -0.119,-0.115c-0.027,-0.023 -0.055,-0.051 -0.08,-0.078c-0.017,0.057 -0.033,0.115 -0.047,0.165l-0.003,0.009Zm4.482,-7.412l0.003,0.021c0.033,0.261 0,0.482 -0.071,0.668c-0.022,-0.071 -0.047,-0.14 -0.075,-0.205c0.034,-0.208 0.082,-0.372 0.143,-0.484Zm-0.208,0.346c-0.24,-0.453 -0.606,-0.667 -0.784,-0.361c-0.075,0.13 -0.131,0.338 -0.168,0.609c-0.016,-0.027 -0.033,-0.054 -0.049,-0.081c-0.004,-0.726 0.071,-1.276 0.217,-1.528c0.195,-0.335 0.616,-0.047 0.849,0.498c-0.039,0.236 -0.061,0.528 -0.065,0.863Zm3.657,-3.594c-0.051,0.209 -0.083,0.333 -0.067,0.506c0.014,-0.017 0.033,-0.049 0.066,-0.105c0.031,-0.057 0.071,-0.121 0.119,-0.192c-0.022,-0.113 -0.054,-0.212 -0.092,-0.307c-0.007,0.03 -0.016,0.062 -0.026,0.098Zm20.201,-2.212c0.164,-0.06 0.364,-0.061 0.523,0l-0.523,0Zm-5.965,-1.675c0.009,-0.124 0.018,-0.279 0.016,-0.327c0,0 -0.01,-0.037 -0.038,-0.11c-0.011,-0.026 -0.019,-0.059 -0.028,-0.085c-0.054,0.112 -0.066,0.243 -0.066,0.338c0,0.013 0.002,0.25 0.099,0.427c0.006,-0.085 0.009,-0.169 0.017,-0.243Zm-19.713,0.167l-0.003,0.035l-0.017,0.002c0.003,-0.006 0.004,-0.011 0.008,-0.017l0.013,-0.038l-0.001,0.018Zm3.251,-0.273c-0.005,0.022 -0.005,0.059 0,0.107c0.18,-0.094 0.329,-0.247 0.474,-0.424c-0.277,0.07 -0.438,0.209 -0.474,0.317Zm-3.261,-2.083l0,-0.73c0.415,0.023 0.722,0.228 0.912,0.605c0.176,0.35 0.228,0.804 0.159,1.234c-0.03,-0.181 -0.083,-0.352 -0.159,-0.504c-0.19,-0.377 -0.497,-0.581 -0.912,-0.605Zm21.486,-2.096c0.103,-0.002 0.169,-0.025 0.248,-0.361c-0.032,-0.02 -0.065,-0.037 -0.098,-0.061c-0.006,-0.003 -0.013,-0.007 -0.02,-0.015c-0.113,0.243 -0.139,0.365 -0.13,0.437Zm-21.61,-0.31c-0.1,-0.277 -0.238,-0.493 -0.358,-0.632c-0.253,0.22 -0.454,0.457 -0.56,0.839c-0.03,-0.024 -0.056,-0.049 -0.078,-0.074c-0.048,-1.003 0.226,-1.407 0.638,-1.765c0.154,0.178 0.335,0.481 0.431,0.873c-0.053,0.206 -0.08,0.453 -0.073,0.759Zm0.058,0.186l0.006,0.005l-0.004,0.002l-0.002,-0.007Zm-1.001,-1.294c-0.068,0.14 -0.117,0.312 -0.144,0.503c-0.017,-0.121 -0.026,-0.243 -0.026,-0.363c0,-0.334 0.061,-0.644 0.17,-0.87l0,0.73Zm28.28,-0.782l-0.008,-0.052c-0.056,-0.282 -0.1,-0.508 -0.081,-0.844c0.108,-0.138 0.2,-0.218 0.26,-0.218c0.138,0 0.342,0.641 0.457,0.993l0.058,0.179c0.027,0.082 0.062,0.163 0.101,0.229c-0.123,-0.01 -0.253,-0.026 -0.382,-0.044c-0.082,-0.201 -0.166,-0.357 -0.234,-0.357c-0.042,0 -0.101,0.041 -0.171,0.114Z" style="fill:#ebedd5;"/><path d="M298.886,0.215l18.348,0c0.051,0.23 0.091,0.425 0.119,0.602c0.037,-0.216 0.05,-0.407 0.042,-0.602l5.085,0l1.773,1.772l0,6.284l-1.773,1.773l-1.446,0c0.028,-0.182 0.037,-0.399 0.009,-0.649c-0.094,0.015 -0.185,0.043 -0.273,0.087l0.043,0.013c0.077,0.195 0.132,0.378 0.171,0.549l-1.62,0c0.005,-0.073 0.011,-0.148 0.019,-0.224c0.276,-0.367 0.601,-0.467 0.962,-0.431c0.005,-0.179 0.018,-0.369 0.038,-0.569c0.12,-0.159 0.25,-0.269 0.387,-0.338c-0.531,-0.168 -1.007,-0.168 -1.387,0.338c-0.047,0.464 -0.054,0.878 -0.021,1.224l-4.268,0c-0.019,-0.015 -0.037,-0.033 -0.056,-0.049c-0.081,-0.071 -0.157,-0.11 -0.227,-0.11c-0.095,0 -0.186,0.059 -0.271,0.159l-0.277,0l0,0.543c-0.115,0.339 -0.186,0.751 -0.188,1.125c0,0.183 0.014,0.343 0.043,0.479c0.032,-0.211 0.082,-0.418 0.145,-0.603l0,41.747l-1.773,1.772l-6.284,0l-1.772,-1.772l0,-10.643c0.077,0.017 0.154,0.024 0.23,0.017c-0.062,-0.103 -0.128,-0.207 -0.194,-0.308l-0.036,-0.056l0,-0.991c0.014,-0.043 0.031,-0.085 0.049,-0.125c-0.04,-0.163 -0.057,-0.347 -0.046,-0.522l-0.003,-0.001l0,-20.757c0.006,0.01 0.011,0.019 0.017,0.028c0.13,0.214 0.213,0.483 0.248,0.797c0.048,-0.505 0.006,-0.939 -0.122,-1.281c-0.048,0.001 -0.095,0.007 -0.141,0.017l-0.002,-0.005l0,-9.461l-8.218,0l-1.773,-1.773l0,-6.284l1.773,-1.772l2.618,0c-0.02,0.019 -0.04,0.041 -0.059,0.067c-0.139,0.184 -0.217,0.491 -0.217,0.824c0,0.124 0.011,0.25 0.036,0.369c0.036,-0.179 0.097,-0.334 0.181,-0.445c0.03,-0.042 0.064,-0.074 0.096,-0.099c0.078,0.176 0.208,0.315 0.364,0.379c0.038,0.013 0.073,0.029 0.109,0.049c0.064,-0.176 0.096,-0.428 0.042,-0.724c-0.051,-0.031 -0.099,-0.055 -0.151,-0.073c-0.146,-0.06 -0.27,-0.187 -0.349,-0.347Zm14.146,43.25c-0.036,0.065 -0.067,0.116 -0.1,0.167c0.012,0.049 0.026,0.1 0.036,0.151c0.011,0.068 0.02,0.128 0.028,0.196c0.009,-0.008 0.018,-0.023 0.027,-0.032c0.018,-0.024 0.042,-0.053 0.062,-0.078c-0.011,-0.17 -0.031,-0.303 -0.053,-0.404Zm-2.799,-13.796l-0.029,0l0.026,1l0.003,0l0,-1Zm-2.725,-1.582c-0.03,-0.372 -0.034,-0.729 0.073,-1.161c0.183,0.158 0.4,0.184 0.584,0.049c0.123,0.067 0.131,0.171 0.102,0.508c-0.007,0.085 -0.017,0.195 -0.018,0.269l0.001,0.053c-0.018,-0.036 -0.046,-0.061 -0.085,-0.082c-0.184,0.135 -0.401,0.109 -0.584,-0.049c-0.036,0.145 -0.059,0.281 -0.073,0.413Zm1.047,-5.559c0,0.21 -0.01,0.34 -0.044,0.389c0,0 -0.01,0.004 -0.025,0.008c-0.009,-0.063 -0.009,-0.111 -0.012,-0.196l-0.012,-0.201l0.093,0Zm-1.831,0.144c-0.012,0.049 -0.026,0.096 -0.041,0.142c-0.088,-0.051 -0.189,-0.078 -0.299,-0.078c-0.178,0 -0.338,0.067 -0.456,0.182c-0.077,-0.101 -0.137,-0.24 -0.186,-0.422c0.076,-0.304 0.331,-0.508 0.642,-0.508c0.147,0 0.28,0.049 0.385,0.137c0.002,0.049 0.004,0.096 0.003,0.141c-0.048,0.067 -0.083,0.145 -0.105,0.23c0.018,0.064 0.036,0.123 0.057,0.176Zm5.059,-0.221l0,-0.748l-0.004,0l0.003,0.748l0.001,0Zm0.251,-0.799c0.086,-0.006 0.191,-0.006 0.284,-0.015c-0.035,-0.122 -0.051,-0.249 -0.047,-0.377c-0.029,-0.006 -0.059,-0.012 -0.087,-0.018c-0.148,-0.034 -0.264,-0.046 -0.35,-0.04c0.013,0.058 0.026,0.118 0.029,0.181c0.007,0.06 0.008,0.142 0.013,0.205c0,0.016 0,0.045 0.003,0.079c0.016,-0.004 0.036,-0.009 0.055,-0.011l0.1,-0.004Zm-1.11,-3.848c0.029,-0.11 0.061,-0.22 0.096,-0.332c0.133,0.098 0.302,0.206 0.488,0.271c0.296,1.002 0.415,1.773 0.348,2.743c-0.064,-0.835 -0.291,-1.632 -0.672,-2.753c-0.087,0.041 -0.174,0.063 -0.26,0.071Zm-3.074,2.498c-0.011,0.02 -0.018,0.036 -0.024,0.046c0.077,0.068 0.219,0.133 0.358,0.133c0.123,0 0.175,-0.039 0.195,-0.088c-0.091,-0.148 -0.237,-0.253 -0.429,-0.339c-0.022,0.081 -0.056,0.164 -0.1,0.248Zm2.877,-2.504c-0.271,-0.037 -0.523,-0.19 -0.707,-0.326c-0.192,0.615 -0.298,1.189 -0.335,1.761c-0.056,-0.92 0.032,-1.791 0.335,-2.761c0.227,0.168 0.561,0.363 0.904,0.331c-0.091,0.34 -0.156,0.669 -0.197,0.995Zm-4.591,0.521c0.031,0.125 0.026,0.27 -0.016,0.387c-0.048,0.135 -0.131,0.203 -0.242,0.203c-0.047,-0.081 -0.063,-0.111 -0.063,-0.111c-0.002,-0.008 -0.002,-0.054 0.019,-0.234c0.003,-0.021 0.003,-0.046 0.008,-0.076c0.073,-0.034 0.139,-0.084 0.194,-0.169l0.1,0Zm2.815,-4.031c-0.29,-0.168 -0.746,-0.143 -0.994,0.067c-0.029,-0.263 -0.036,-0.591 -0.02,-0.982c0.258,-0.24 0.774,-0.26 1.065,-0.052c-0.023,0.016 -0.045,0.033 -0.065,0.052c-0.014,0.358 -0.01,0.663 0.014,0.915Zm-7.982,-6.398c0.04,0.01 0.08,0.015 0.116,0.015c-0.024,0.222 -0.11,0.375 -0.231,0.595l-0.043,0.077c-0.039,-0.021 -0.077,-0.048 -0.11,-0.078c-0.15,-0.142 -0.268,-0.361 -0.282,-0.606c-0.034,-0.137 -0.071,-0.218 -0.166,-0.244c-0.156,0.122 -0.273,0.312 -0.335,0.532c-0.017,-0.051 -0.028,-0.099 -0.036,-0.143c-0.074,-0.444 0.08,-0.91 0.371,-1.137c0.095,0.026 0.132,0.106 0.166,0.243c0.014,0.246 0.132,0.465 0.282,0.606c0.027,0.026 0.057,0.048 0.089,0.067c-0.001,0.074 0.005,0.148 0.018,0.221c0.007,0.044 0.018,0.092 0.035,0.143c0.03,-0.105 0.072,-0.204 0.126,-0.291Zm17.932,0.22c-0.019,0.025 -0.038,0.051 -0.056,0.078l-0.002,-0.004c-0.113,-0.192 -0.234,-0.404 -0.328,-0.666c-0.077,0.071 -0.184,0.149 -0.321,0.167c-0.023,0.191 -0.094,0.361 -0.197,0.487l-0.007,-0.019c-0.067,-0.204 -0.127,-0.377 -0.149,-0.588c0.185,-0.119 0.321,-0.353 0.353,-0.628c0.137,-0.018 0.244,-0.097 0.321,-0.167c0.094,0.262 0.215,0.473 0.328,0.666l0.026,0.046c-0.032,0.032 -0.066,0.06 -0.103,0.083c0.021,0.196 0.074,0.359 0.135,0.545Zm0.18,-0.205l-0.02,0.021l0.013,-0.036l0,-0.001l0.007,0.016Zm-23.606,-0.426c-0.087,-0.131 -0.198,-0.201 -0.327,-0.201c-0.208,0 -0.42,0.184 -0.524,0.452c-0.009,0.021 -0.016,0.043 -0.023,0.065c-0.079,-0.303 -0.07,-0.576 0.023,-0.813c0.104,-0.268 0.316,-0.452 0.524,-0.452c0.183,0 0.329,0.141 0.425,0.396c-0.009,0.018 -0.017,0.037 -0.024,0.056c-0.059,0.151 -0.084,0.318 -0.074,0.497Zm0.212,0.013l0.008,0.111c-0.024,0.066 -0.054,0.124 -0.089,0.174c-0.01,-0.036 -0.022,-0.07 -0.034,-0.102c0.032,-0.068 0.071,-0.13 0.115,-0.183Zm-0.113,-0.816c0.019,-0.072 0.04,-0.14 0.068,-0.202c-0.028,-0.175 -0.08,-0.27 -0.179,-0.31c-0.051,0.122 -0.067,0.272 -0.048,0.381c0.007,0.034 0.023,0.119 0.159,0.131Zm19.616,-1.873c0.099,0.385 0.154,0.866 0.158,1.401c-0.02,0.063 -0.036,0.127 -0.05,0.193c-0.06,-0.501 -0.177,-0.913 -0.337,-1.183c-0.055,-0.093 -0.116,-0.17 -0.184,-0.232c0.007,-0.022 0.015,-0.045 0.024,-0.067c0.138,-0.061 0.268,-0.098 0.389,-0.112Zm-1.447,0.284c0.017,-0.057 0.037,-0.115 0.058,-0.172c0.315,-0.139 0.588,-0.156 0.811,-0.046c0.009,-0.293 0.064,-0.592 0.165,-0.886c-0.246,-0.224 -0.578,-0.243 -0.976,-0.068c-0.121,0.326 -0.184,0.661 -0.19,0.987c-0.151,-0.192 -0.336,-0.362 -0.549,-0.531c-0.122,-0.096 -0.213,-0.244 -0.263,-0.414l-0.014,0.113c0.143,0.124 0.248,0.323 0.277,0.565l0.012,0.1c0.01,0.052 0.016,0.107 0.02,0.158c0.027,0.044 0.049,0.095 0.067,0.148c0.034,0.089 0.07,0.171 0.106,0.25c0.289,0.257 0.511,0.532 0.651,0.892c0.045,-0.052 0.088,-0.121 0.138,-0.21c-0.052,-0.357 -0.158,-0.641 -0.313,-0.886Zm-1.787,1.001c0.019,-0.089 0.03,-0.224 0.032,-0.407c-0.049,0.034 -0.099,0.109 -0.168,0.268c0.011,0.018 0.024,0.034 0.034,0.044c0.048,0.068 0.077,0.089 0.102,0.095Zm-14.812,-0.3c-0.047,-0.006 -0.093,-0.019 -0.136,-0.033c-0.046,-0.26 -0.029,-0.478 0.045,-0.617c0.092,-0.182 0.419,-0.216 0.599,-0.065c0.005,0.217 -0.036,0.39 -0.117,0.515c-0.041,0.063 -0.084,0.108 -0.128,0.14c-0.095,-0.007 -0.191,0.014 -0.263,0.06Zm10.051,-2.804c0.058,0.114 0.112,0.245 0.162,0.392c0.01,0.462 0.064,0.926 0.116,1.385c0.039,0.325 0.079,0.658 0.103,1.005c-0.019,-0.056 -0.038,-0.121 -0.059,-0.195c-0.034,-0.11 -0.065,-0.211 -0.099,-0.305c-0.049,-0.477 -0.082,-0.956 -0.051,-1.43c-0.018,0.025 -0.042,0.046 -0.062,0.065c-0.156,0.147 -0.344,0.183 -0.516,0.097c-0.159,-0.079 -0.296,-0.253 -0.384,-0.483l0.015,-0.102c0.239,-0.015 0.417,-0.17 0.55,-0.369c0.076,0.001 0.152,-0.019 0.225,-0.06Zm-0.868,0.307c-0.069,-0.189 -0.145,-0.347 -0.228,-0.477c-0.14,0.296 -0.353,0.579 -0.679,0.599c-0.044,0.27 -0.07,0.593 -0.096,0.908c-0.015,0.203 -0.032,0.419 -0.056,0.638c-0.061,-0.001 -0.122,-0.003 -0.183,-0.008c0.15,-0.503 0.201,-1.11 0.239,-1.63c0.026,-0.315 0.052,-0.638 0.096,-0.908c0.326,-0.02 0.539,-0.303 0.679,-0.599c0.106,0.167 0.202,0.379 0.284,0.641c0.007,0.02 0.014,0.04 0.022,0.06c-0.034,0.238 -0.056,0.509 -0.078,0.776Zm-9.12,0.968c0,-0.139 -0.002,-0.308 0.013,-0.508c-0.245,-0.067 -0.54,0.304 -0.681,0.705c0.111,0.145 0.335,0.21 0.608,0.269c0.06,-0.142 0.06,-0.252 0.06,-0.466Zm24.564,-0.14c-0.099,-0.168 -0.249,-0.28 -0.469,-0.226c-0.162,0.186 -0.289,0.405 -0.384,0.661c-0.06,-0.009 -0.125,-0.018 -0.197,-0.027c0.057,-0.72 0.244,-1.247 0.581,-1.634c0.386,-0.094 0.555,0.321 0.62,0.65c-0.065,0.174 -0.115,0.365 -0.151,0.576Zm-10.368,-1.094c-0.048,0.317 -0.093,0.689 -0.051,0.926l0.265,0c0.026,-0.178 0.033,-0.442 0.029,-0.666c-0.064,-0.056 -0.122,-0.121 -0.175,-0.18c-0.022,-0.032 -0.046,-0.057 -0.068,-0.08Zm0.819,-0.904c-0.074,-0.032 -0.15,-0.05 -0.225,-0.05c-0.412,0 -0.669,0.53 -0.758,1.053c-0.031,-0.156 -0.035,-0.289 -0.035,-0.35c0,-0.608 0.274,-1.451 0.793,-1.451c0.171,0 0.34,0.091 0.498,0.23c-0.12,0.147 -0.212,0.35 -0.273,0.568Zm0.712,-0.049l0.045,0.066c-0.049,0.185 -0.086,0.38 -0.116,0.58c-0.112,-0.156 -0.236,-0.303 -0.368,-0.417c0.116,-0.141 0.259,-0.23 0.427,-0.23l0.012,0.001Zm3.633,-1.038l0.002,0.032l-0.01,0.006l0.006,-0.067l0.002,0.029Z" style="fill:#ebedd5;"/><path d="M7.701,55.107l-5.929,0l-1.772,-1.772l0,-51.509l1.772,-1.772l6.285,0l0.268,0.268c0.537,-0.179 2.471,-0.268 5.801,-0.268c2.686,0 5.246,0.77 7.681,2.309c0.59,0.377 1.16,0.788 1.709,1.234c-0.209,0.199 -0.357,0.541 -0.396,0.942c-0.023,0.249 -0.004,0.489 0.051,0.704c0.091,-0.364 0.278,-0.647 0.515,-0.769c0.21,0.1 0.338,0.415 0.399,0.76c0.02,-0.094 0.031,-0.185 0.037,-0.264c-0.015,-0.138 -0.016,-0.283 -0.002,-0.431l0.002,-0.02c-0.013,-0.161 -0.039,-0.327 -0.08,-0.479c1.535,1.341 2.903,2.966 4.103,4.876c1.321,2.136 2.123,6.158 2.407,12.067c-0.126,-0.057 -0.261,-0.13 -0.408,-0.22c-0.005,0.065 -0.008,0.14 -0.008,0.226c0,0.111 0.007,0.213 0.017,0.299c0.139,-0.06 0.274,-0.132 0.403,-0.213c0.075,1.594 0.113,3.323 0.113,5.19l0,1.611c-0.036,3.975 -0.233,7.52 -0.591,10.635c-0.501,3.974 -1.289,6.767 -2.363,8.379c-3.652,5.478 -8.146,8.217 -13.482,8.217l-0.107,0c-3.187,-0.035 -5.067,-0.179 -5.64,-0.429l-0.429,0.429l-0.355,0l-0.005,-0.458l-0.008,0.027l0.012,0.431Zm0.013,-2.814c0.087,0.395 0.096,0.788 0.029,1.15c-0.012,-0.075 -0.028,-0.15 -0.046,-0.225c-0.036,-0.144 -0.079,-0.275 -0.125,-0.393l0.029,0.02c0.031,-0.267 0.074,-0.44 0.113,-0.552Zm-0.15,0.514c-0.2,-0.5 -0.475,-0.765 -0.634,-0.765c-0.064,0 -0.112,0.041 -0.16,0.124c-0.046,0.081 -0.122,0.272 -0.169,0.679l-0.037,-0.025c-0.019,-1.116 0.133,-1.525 0.206,-1.654c0.048,-0.083 0.096,-0.124 0.16,-0.124c0.168,0 0.465,0.295 0.667,0.85c-0.025,0.233 -0.039,0.532 -0.033,0.915Zm-3.532,-4.97l-0.065,-0.045c-0.036,-0.468 -0.006,-0.818 0.078,-0.985c0.022,-0.043 0.056,-0.096 0.135,-0.096c0.188,0 0.397,0.26 0.47,0.581c0.062,0.272 0.002,0.535 -0.094,0.742c-0.098,-0.192 -0.242,-0.323 -0.376,-0.323c-0.079,0 -0.113,0.053 -0.135,0.096l-0.013,0.03Zm-1.898,-3.315c-0.09,-0.198 -0.164,-0.447 -0.225,-0.693c0.021,-0.116 0.087,-0.197 0.299,-0.369c0.111,-0.083 0.242,-0.196 0.36,-0.35c0.059,0.234 0.073,0.587 0.07,1.142c0,0.223 -0.002,0.435 0.007,0.644l-0.008,0.004c-0.005,-0.359 -0.024,-0.61 -0.069,-0.79c-0.118,0.154 -0.249,0.267 -0.36,0.35c-0.027,0.022 -0.052,0.042 -0.074,0.062Zm8.286,-34.8l-0.591,0l0,35.073c0.322,0.036 1.755,0.054 4.297,0.054c2.077,0 3.867,-1.092 5.371,-3.277c0.859,-1.969 1.325,-6.552 1.397,-13.75l0,-0.913c0,-6.66 -0.376,-10.957 -1.128,-12.89c-1.755,-2.758 -3.635,-4.136 -5.64,-4.136c-0.358,0 -1.074,-0.036 -2.148,-0.108c-0.609,-0.035 -1.128,-0.053 -1.558,-0.053Zm-2.939,29.51c0.041,0.169 0.087,0.327 0.132,0.481c0.062,0.212 0.121,0.424 0.166,0.653c-0.102,-0.057 -0.211,-0.146 -0.325,-0.253c-0.085,-0.386 -0.133,-0.826 -0.066,-1.37c0.011,0.081 0.024,0.16 0.039,0.237c-0.005,0.068 -0.009,0.138 -0.011,0.211c0.022,0.013 0.044,0.027 0.065,0.041Zm-4.072,-0.843c-0.15,0 -0.368,0.317 -0.381,0.584c-0.01,0.164 0.16,0.266 0.279,0.317c0.015,-0.025 0.033,-0.051 0.046,-0.076c0.039,-0.066 0.084,-0.142 0.14,-0.215c0,-0.37 -0.046,-0.556 -0.077,-0.607c0,0 -0.004,-0.003 -0.007,-0.003Zm3.13,0.884c-0.04,-0.029 -0.081,-0.057 -0.123,-0.082c0.035,-1.135 0.394,-1.645 0.748,-2.061c0.07,0.147 0.161,0.266 0.268,0.336c-0.066,0.352 -0.084,0.663 -0.072,0.944c-0.076,-0.07 -0.142,-0.167 -0.196,-0.28c-0.24,0.282 -0.483,0.608 -0.625,1.143Zm-3.616,-12.256c0.011,0.087 0.019,0.176 0.026,0.268c0.01,0.165 0.02,0.466 -0.018,0.802c-0.092,-0.859 -0.388,-1.446 -0.622,-1.446c-0.154,0 -0.333,0.226 -0.509,0.629c-0.045,-0.181 -0.1,-0.365 -0.169,-0.556c0.226,-0.677 0.474,-1.073 0.678,-1.073c0.155,0 0.337,0.257 0.469,0.68c-0.05,0.118 -0.099,0.249 -0.147,0.393c0.069,0.191 0.124,0.375 0.169,0.556c0.041,-0.094 0.082,-0.179 0.123,-0.253Zm4.594,-2.82c0.033,0.261 0.026,0.538 0.011,0.814c-0.052,-0.13 -0.028,-0.511 -0.013,-0.795l0.002,-0.019Zm0.078,-3.566c0.049,0.713 -0.011,1.479 -0.167,2.177c-0.021,-0.06 -0.046,-0.118 -0.074,-0.175c-0.031,-0.073 -0.068,-0.124 -0.107,-0.172c0.188,-0.557 0.307,-1.193 0.348,-1.83Zm0.006,-0.902c-0.019,-0.363 -0.067,-0.714 -0.144,-1.037c-0.009,-0.035 -0.015,-0.065 -0.024,-0.097c0.028,0.024 0.056,0.046 0.082,0.066c0.116,0.09 0.244,0.189 0.299,0.294c0.125,0.239 0.297,0.374 0.474,0.391c-0.009,0.04 -0.017,0.083 -0.025,0.128c-0.048,0.296 -0.02,0.609 0.077,0.867c0.117,0.323 0.111,0.668 0.09,1.202l-0.006,0.167c-0.015,-0.131 -0.042,-0.252 -0.084,-0.369c-0.097,-0.258 -0.125,-0.571 -0.077,-0.867c0.008,-0.045 0.016,-0.088 0.025,-0.128c-0.177,-0.017 -0.349,-0.152 -0.474,-0.391c-0.041,-0.079 -0.125,-0.155 -0.213,-0.226Zm14.067,1.137c-0.051,-0.285 -0.08,-0.603 -0.082,-0.966c0.196,-0.093 0.183,-0.059 0.38,0.325c0.073,0.143 0.158,0.31 0.263,0.457c-0.109,0.119 -0.228,0.247 -0.334,0.403c-0.102,-0.203 -0.131,-0.251 -0.227,-0.219Zm-20.55,-0.775c-0.02,0.174 0.035,0.323 0.167,0.444c0.228,-0.098 0.356,-0.31 0.411,-0.692c-0.048,-0.155 -0.118,-0.307 -0.212,-0.307c-0.137,0 -0.331,0.256 -0.366,0.555Zm24.369,-2.191c-0.039,-0.175 -0.053,-0.366 -0.036,-0.554c0.002,-0.043 0.006,-0.082 0.014,-0.119c-0.012,0.026 -0.025,0.054 -0.037,0.08c-0.299,0.692 -0.662,1.546 -1.267,1.806c-0.021,0.364 -0.067,0.756 -0.11,1.141l-0.014,0.128c-0.029,-0.02 -0.058,-0.038 -0.086,-0.052c0.008,-0.28 0.061,-0.729 0.1,-1.076c0.043,-0.385 0.089,-0.777 0.11,-1.141c0.605,-0.26 0.968,-1.114 1.267,-1.806c0.012,-0.026 0.025,-0.054 0.037,-0.08c-0.008,0.037 -0.012,0.076 -0.014,0.119c-0.032,0.358 0.045,0.726 0.202,0.971c0.048,0.077 0.099,0.148 0.151,0.216c-0.096,0.139 -0.201,0.264 -0.317,0.367Zm0.662,0.027l0.073,0.076c0.034,0.034 0.07,0.073 0.104,0.107c-0.054,0.269 -0.092,0.564 -0.125,0.871c-0.132,-0.138 -0.269,-0.281 -0.397,-0.448c0.128,-0.185 0.242,-0.393 0.345,-0.606Zm-19.832,-0.993c-0.02,-0.01 -0.041,-0.02 -0.061,-0.029c0.025,-1.16 0.291,-3.212 0.775,-4.073c0.196,-0.35 0.361,-0.372 0.58,-0.127c-0.075,0.356 -0.089,0.666 -0.063,0.936c-0.188,-0.174 -0.34,-0.125 -0.517,0.191c-0.366,0.652 -0.608,1.989 -0.714,3.102Zm-5.637,-1.5c-0.128,0.042 -0.257,0.002 -0.385,-0.054c0.032,-0.304 0.137,-0.496 0.312,-0.813c0.026,-0.045 0.054,-0.1 0.083,-0.151c0.088,0.281 0.162,0.544 0.196,0.872c-0.064,0.073 -0.128,0.118 -0.192,0.141l-0.004,-0.013l-0.01,0.018Zm7.096,-0.985c0.061,0.126 0.13,0.238 0.2,0.339c-0.12,0.003 -0.238,0.059 -0.34,0.164c0.043,-0.178 0.089,-0.347 0.14,-0.503Zm1.471,0.257l0.002,0.009l-0.005,0.003l0.003,-0.012Zm0.065,-0.56c-0.002,-0.062 -0.008,-0.125 -0.017,-0.188c-0.024,-0.147 -0.056,-0.322 -0.115,-0.486c0.024,-0.121 0.07,-0.215 0.139,-0.339c0.008,0.027 0.014,0.06 0.02,0.083c0.192,0.826 0.21,1.137 0.081,1.368c-0.022,-0.11 -0.049,-0.232 -0.081,-0.368c-0.006,-0.023 -0.012,-0.056 -0.02,-0.083l-0.007,0.013Zm-1.776,0.258c-0.001,-0.165 0.013,-0.343 0.045,-0.536c0.01,0.055 0.023,0.108 0.036,0.159c-0.028,0.123 -0.055,0.249 -0.081,0.377Zm-3.598,-2.329c-0.035,0.153 -0.082,0.286 -0.119,0.401c0.107,-0.064 0.22,-0.104 0.332,-0.118c-0.061,-0.097 -0.128,-0.188 -0.213,-0.283Zm1.08,-5.399c0.021,-0.072 0.041,-0.14 0.067,-0.202c-0.024,-0.175 -0.077,-0.27 -0.179,-0.31c-0.05,0.122 -0.068,0.272 -0.047,0.381c0.005,0.034 0.022,0.119 0.159,0.131Zm11.622,-3.694c0.058,0.115 0.111,0.245 0.161,0.392c0.01,0.463 0.064,0.928 0.117,1.387c0.038,0.325 0.078,0.658 0.1,1.005c-0.017,-0.056 -0.036,-0.121 -0.059,-0.195c-0.033,-0.108 -0.063,-0.207 -0.096,-0.3c-0.05,-0.479 -0.084,-0.96 -0.051,-1.435c-0.021,0.025 -0.044,0.046 -0.064,0.065c-0.157,0.147 -0.343,0.183 -0.515,0.097c-0.16,-0.079 -0.296,-0.252 -0.384,-0.483l0.016,-0.102c0.239,-0.015 0.416,-0.17 0.549,-0.369c0.077,0.001 0.153,-0.019 0.226,-0.062Zm-0.868,0.311c-0.068,-0.189 -0.144,-0.348 -0.228,-0.479c-0.143,0.296 -0.352,0.579 -0.679,0.599c-0.044,0.27 -0.072,0.598 -0.096,0.919c-0.016,0.197 -0.032,0.411 -0.056,0.627c-0.061,-0.001 -0.122,-0.003 -0.182,-0.008c0.15,-0.495 0.198,-1.11 0.238,-1.619c0.024,-0.321 0.052,-0.649 0.096,-0.919c0.327,-0.02 0.536,-0.303 0.679,-0.599c0.108,0.167 0.2,0.379 0.284,0.641c0.006,0.02 0.014,0.041 0.021,0.06c-0.033,0.237 -0.056,0.509 -0.077,0.778Zm-9.121,0.966c0,-0.139 -0.003,-0.308 0.014,-0.508c-0.245,-0.067 -0.538,0.304 -0.684,0.705c0.113,0.145 0.338,0.21 0.612,0.269c0.058,-0.142 0.058,-0.252 0.058,-0.466Z" style="fill:#ebedd5;"/></svg>